<?xml version="1.0" encoding="utf-8"?>
<!-- Generator: Adobe Illustrator 19.0.0, SVG Export Plug-In . SVG Version: 6.00 Build 0)  -->
<svg version="1.1" id="Layer_1" xmlns="http://www.w3.org/2000/svg" xmlns:xlink="http://www.w3.org/1999/xlink" x="0px" y="0px"
	 width="1764.1px" height="583px" viewBox="0 0 1764.1 583" style="enable-background:new 0 0 1764.1 583;" xml:space="preserve">
<style type="text/css">
	.st0{fill:#3280AB;}
	.st1{fill:#245892;}
	.st2{fill:#666766;}
</style>
<polygon class="st0" points="173.5,85.7 173.5,158.4 404.4,314.3 404.4,241.5 "/>
<polygon class="st1" points="474.6,206.7 474.6,279.4 404.4,314.3 404.4,241.5 "/>
<polygon class="st1" points="441.9,109 441.9,188.5 374.1,142.7 "/>
<polygon class="st1" points="395.1,0 395.1,65.1 319.8,106.1 261.2,66.6 "/>
<g>
	<path class="st1" d="M0.4,388.1h71.5v24.3H26.7v17h42.1v23H26.7v35.7H0.4V388.1z"/>
	<path class="st1" d="M110.6,438.4v-0.3c0-28.7,22.2-52,51.7-52s51.5,23,51.5,51.7v0.3c0,28.7-22.2,52-51.7,52
		S110.6,467.1,110.6,438.4z M186.6,438.4v-0.3c0-14.6-9.9-28-24.5-28c-14.6,0-24.4,13.3-24.4,27.7v0.3c0,14.4,10,28,24.6,28
		C176.9,466.1,186.6,452.8,186.6,438.4z"/>
	<path class="st1" d="M255.5,388.1h44.9c14.5,0,24.6,4,30.9,10.7c5.6,5.9,8.4,13.4,8.4,23.3v0.3c0,15.4-7.7,25.6-19.5,30.9
		l21.7,34.9h-30.3l-18.2-30.3h-11.7v30.3h-26.3V388.1z M299.3,436.1c8.8,0,14.1-4.6,14.1-11.9V424c0-8-5.6-12-14.2-12h-17.4v24.1
		H299.3z"/>
	<path class="st1" d="M403.4,412.4H375v-24.3h83.2v24.3h-28.5v75.7h-26.3V412.4z"/>
	<path class="st1" d="M497.6,388.1h26.3v100h-26.3V388.1z"/>
	<path class="st1" d="M563.7,469.6l16.2-16.3c8.8,8.8,15.8,14.5,26.8,14.5c9.4,0,15-3.5,15-7.8v-0.3c0-4.3-4.2-7.7-17.9-9.1
		c-20.7-2.2-38.1-11.5-38.1-31.9v-0.3c0-18.6,14-32,36.8-32c16.1,0,29.7,4.6,42.1,17.3L627.8,421c-8.3-9.9-18.3-12.3-26-11.6
		c-6.4,0.5-9.5,2.7-9.5,6.4v0.3c0,4.6,3.3,7.5,16.9,9c21.1,2.3,38.8,11.3,38.8,31.9v0.3c0,20.4-18,33-41.1,33
		C590.1,490.3,574.6,484.5,563.7,469.6z"/>
</g>
<g>
	<path class="st1" d="M150.8,553.6v-0.2c0-15.7,11.5-29.6,28.7-29.6c9.6,0,15.6,2.8,21.3,7.6l-4.2,4.9c-4.4-3.8-9.3-6.5-17.4-6.5
		c-12.7,0-21.7,10.7-21.7,23.5v0.2c0,13.6,8.7,23.8,22.6,23.8c6.5,0,12.6-2.5,16.5-5.7v-14.2h-17.4v-5.8h23.6v22.8
		c-5.3,4.7-13.3,8.7-23,8.7C161.9,583,150.8,570,150.8,553.6z"/>
	<path class="st1" d="M229.6,524.8h24.6c7,0,12.7,2.1,16.3,5.7c2.8,2.8,4.4,6.8,4.4,11.3v0.2c0,9.5-6.5,15-15.5,16.7l17.6,23.4H269
		l-16.6-22.2h-16.3v22.2h-6.5V524.8z M253.6,554c8.6,0,14.7-4.4,14.7-11.8v-0.2c0-7-5.4-11.3-14.6-11.3h-17.7V554H253.6z"/>
	<path class="st1" d="M298.4,553.6v-0.2c0-15.8,11.9-29.6,29.3-29.6c17.4,0,29.1,13.6,29.1,29.4v0.2c0,15.8-11.8,29.6-29.3,29.6
		C310.1,583,298.4,569.4,298.4,553.6z M350.1,553.6v-0.2c0-13-9.5-23.6-22.6-23.6c-13.1,0-22.4,10.5-22.4,23.5v0.2
		c0,13,9.5,23.6,22.6,23.6C340.8,577.1,350.1,566.6,350.1,553.6z"/>
	<path class="st1" d="M381.8,558.1v-33.3h6.5v32.9c0,12.3,6.6,19.3,17.5,19.3c10.5,0,17.2-6.4,17.2-18.9v-33.3h6.5v32.8
		c0,16.7-9.6,25.3-23.9,25.3C391.4,583,381.8,574.3,381.8,558.1z"/>
	<path class="st1" d="M457,524.8h21.4c12.9,0,21.4,6.9,21.4,18.1v0.2c0,12.3-10.3,18.7-22.5,18.7h-13.9v20.2H457V524.8z M477.6,556
		c9.5,0,15.7-5.1,15.7-12.6v-0.2c0-8.2-6.1-12.4-15.4-12.4h-14.5V556H477.6z"/>
</g>
<g>
	<path class="st2" d="M1098.5,532.1c-0.7-0.4-1.7-0.6-3.1-0.6h-5.3c-2.7,0-4.4,0-5,0.1c-1.8,0.1-3,0.8-3.4,2.1
		c-0.3,0.7-0.4,2.1-0.4,4.2c0,2.9,0.1,4.8,0.3,5.5c0.5,1.8,1.9,2.7,4.3,2.7l5.8,0l4.8,0c2.1-0.1,3.3-1.1,3.5-3l0-1.1h8.7v1.4
		c0,2.3-0.3,4.1-0.8,5.5c-0.2,0.6-0.5,1.2-1,1.6c-1.3,1.4-3.8,2.3-7.2,2.6c-1.8,0.2-3.5,0.3-5.3,0.3c-0.8,0-1.9,0-3.4,0
		c-2.6,0-4.6,0-5.9-0.1c-1.3-0.1-2.6-0.2-3.8-0.3c-1.3-0.1-2.4-0.4-3.5-0.8c-1.3-0.4-2.3-1-3-1.9c-1.1-1.3-1.8-2.7-2-4.4
		c-0.3-1.8-0.4-4-0.4-6.5c0-2.5,0.1-4.7,0.3-6.7c0.1-1.1,0.3-2.1,0.7-3.1c1-2.7,3.2-4.3,6.5-4.9c2.5-0.4,6.1-0.6,10.6-0.6h4
		c4.9,0,8.4,0.5,10.3,1.5c1.5,0.7,2.5,2.1,3.1,4.1c0.2,0.8,0.4,2.6,0.4,5.2h-8.7C1099.6,533.4,1099.3,532.5,1098.5,532.1z"/>
	<path class="st2" d="M1131.9,553.4c-1.4,0-2.6,0-3.7-0.1c-2.7-0.1-4.8-1-6.2-2.5c-0.6-0.6-1.1-1.3-1.4-2c-0.8-1.7-1.2-4.8-1.2-9.3
		l0-3.7c0.1-2.5,0.4-4.6,0.9-6.3c0.7-2.1,2.1-3.6,4.4-4.4c1.6-0.6,5.9-0.9,12.8-0.9l6.3,0c4.5,0,7.4,0.3,8.8,0.8
		c3,1.1,4.8,3.3,5.2,6.7c0.1,1,0.2,2.4,0.2,4.2l0.1,4.7c0,1.9-0.1,3.6-0.2,5c-0.1,1.1-0.4,2.2-0.9,3.2c-1.4,3.1-4.1,4.7-8.1,4.7
		c-0.6,0-2.1,0-4.4,0L1131.9,553.4z M1143.1,546c1.4,0,2.5,0,3.1-0.1c1.2-0.2,2-0.7,2.5-1.7c0.5-0.9,0.7-3,0.7-6.2
		c0-1.7-0.1-2.9-0.2-3.5c-0.3-1.4-1-2.2-2.1-2.5c-0.8-0.2-1.8-0.4-2.8-0.4c-1.6,0-3.4-0.1-5.6-0.1h-3.2c-1.2,0-2.4,0.1-3.5,0.1
		c-1.4,0.1-2.5,0.6-3.1,1.5c-0.5,0.8-0.8,3.1-0.8,6.9c0,2.7,0.5,4.4,1.3,5.1c0.6,0.5,2.4,0.8,5.3,0.8L1143.1,546z"/>
	<path class="st2" d="M1182.6,524.4l16.5,21.4v-21.4h8.7v28.7h-13.9l-16.5-21.5v21.5h-8.7v-28.7H1182.6z"/>
	<path class="st2" d="M1251.3,524.4v7.4h-12.6v21.3h-8.7v-21.3h-12.6v-7.4H1251.3z"/>
	<path class="st2" d="M1286.4,524.4c1.2,0,2.4,0.1,3.6,0.2c2.7,0.3,4.5,1.2,5.5,2.9c0.4,0.7,0.7,1.4,0.8,2c0.3,1.4,0.4,2.8,0.5,4.3
		c0,2.4-0.3,4.2-1,5.3c-0.6,1.2-2.2,2.1-4.5,2.8c2.4,0.7,3.9,1.5,4.5,2.4c0.6,1,0.9,2.7,0.9,5.2v3.5h-8.7l-0.1-2.7
		c0-1.8-0.2-3-0.6-3.5c-0.5-0.6-1.6-0.9-3.4-0.9h-13.9v7.1h-8.7v-28.7H1286.4z M1269.8,531.8v6.8h12.2c0.9,0,1.8,0,2.8,0
		c0.7,0,1.3-0.1,1.8-0.3c0.9-0.4,1.3-1.4,1.3-3.1c0-1.2-0.3-2-0.9-2.6c-0.4-0.4-1.3-0.6-2.7-0.6l-2.6-0.1H1269.8z"/>
	<path class="st2" d="M1321.8,524.4h11.1l15.8,28.7h-9.9l-2.7-4.9h-17.7l-2.6,4.9h-9.9L1321.8,524.4z M1321.9,541.5h10.7l-5.2-9.8
		L1321.9,541.5z"/>
	<path class="st2" d="M1384.1,532.1c-0.7-0.4-1.7-0.6-3.1-0.6h-5.3c-2.7,0-4.4,0-5,0.1c-1.8,0.1-3,0.8-3.4,2.1
		c-0.3,0.7-0.4,2.1-0.4,4.2c0,2.9,0.1,4.8,0.3,5.5c0.5,1.8,1.9,2.7,4.3,2.7l5.8,0l4.8,0c2.1-0.1,3.3-1.1,3.5-3l0-1.1h8.7v1.4
		c0,2.3-0.3,4.1-0.8,5.5c-0.2,0.6-0.5,1.2-1,1.6c-1.3,1.4-3.8,2.3-7.2,2.6c-1.8,0.2-3.5,0.3-5.3,0.3c-0.8,0-1.9,0-3.4,0
		c-2.6,0-4.6,0-5.9-0.1c-1.3-0.1-2.6-0.2-3.8-0.3s-2.4-0.4-3.5-0.8c-1.3-0.4-2.3-1-3-1.9c-1.1-1.3-1.8-2.7-2-4.4
		c-0.3-1.8-0.4-4-0.4-6.5c0-2.5,0.1-4.7,0.3-6.7c0.1-1.1,0.3-2.1,0.7-3.1c1-2.7,3.2-4.3,6.5-4.9c2.5-0.4,6.1-0.6,10.6-0.6h4
		c4.9,0,8.4,0.5,10.3,1.5c1.5,0.7,2.5,2.1,3.1,4.1c0.2,0.8,0.4,2.6,0.4,5.2h-8.7C1385.2,533.4,1384.8,532.5,1384.1,532.1z"/>
	<path class="st2" d="M1437.4,524.4v7.4h-12.6v21.3h-8.7v-21.3h-12.6v-7.4H1437.4z"/>
	<path class="st2" d="M1447.7,524.4h8.7v28.7h-8.7V524.4z"/>
	<path class="st2" d="M1482.4,524.4l16.5,21.4v-21.4h8.7v28.7h-13.9l-16.5-21.5v21.5h-8.7v-28.7H1482.4z"/>
	<path class="st2" d="M1546.7,534.4c-0.1-1.8-1-2.7-2.7-2.8c-1,0-2.9-0.1-5.9-0.1l-5.4,0c-1.8,0-3.1,0.3-3.9,0.8
		c-0.9,0.6-1.4,1.8-1.5,3.6c-0.1,1.1-0.1,2.1-0.1,3.1c0,1.3,0,2.5,0.2,3.5c0.2,2.1,1.2,3.2,2.9,3.3c0.7,0.1,1.8,0.1,3.3,0.1h3.5l6,0
		c2.6,0,4-0.9,4-2.6v-0.9h-10.9v-5.9h19.6v1c0,4.9-0.1,8-0.3,9.2c-0.2,1.4-0.8,2.7-1.9,3.8c-1,1.1-2.2,1.7-3.8,2
		c-1,0.2-2,0.3-3.2,0.4c-2.5,0.2-5.9,0.3-10.2,0.3l-6.1,0c-2.6,0-4.5-0.2-5.7-0.6c-2.1-0.6-3.6-1.7-4.5-3.4
		c-0.9-1.5-1.4-3.7-1.5-6.6c-0.1-2.3-0.1-4.6-0.1-6.9c0-1,0-1.7,0-2.1c0-1.1,0.2-2.2,0.6-3.4c1.1-3.3,3.5-5.2,7.4-5.8
		c1.2-0.2,2.2-0.3,3.1-0.4c1.5-0.1,3.9-0.1,7.2-0.1c4.2,0,7.4,0,9.5,0.1c6,0.1,9.1,2.9,9.2,8.3v1.9H1546.7z"/>
	<path class="st2" d="M1593.9,524.4h8.7v28.7h-8.7V524.4z"/>
	<path class="st2" d="M1628.6,524.4l16.5,21.4v-21.4h8.7v28.7H1640l-16.5-21.5v21.5h-8.7v-28.7H1628.6z"/>
	<path class="st2" d="M1691,532.1c-0.7-0.4-1.7-0.6-3.1-0.6h-5.3c-2.7,0-4.4,0-5,0.1c-1.8,0.1-3,0.8-3.4,2.1
		c-0.3,0.7-0.4,2.1-0.4,4.2c0,2.9,0.1,4.8,0.3,5.5c0.5,1.8,1.9,2.7,4.3,2.7l5.8,0l4.8,0c2.1-0.1,3.3-1.1,3.5-3l0-1.1h8.7v1.4
		c0,2.3-0.3,4.1-0.8,5.5c-0.2,0.6-0.5,1.2-1,1.6c-1.3,1.4-3.8,2.3-7.2,2.6c-1.8,0.2-3.5,0.3-5.3,0.3c-0.8,0-1.9,0-3.4,0
		c-2.6,0-4.6,0-5.9-0.1c-1.3-0.1-2.6-0.2-3.8-0.3s-2.4-0.4-3.5-0.8c-1.3-0.4-2.3-1-3-1.9c-1.1-1.3-1.8-2.7-2-4.4
		c-0.3-1.8-0.4-4-0.4-6.5c0-2.5,0.1-4.7,0.3-6.7c0.1-1.1,0.3-2.1,0.7-3.1c1-2.7,3.2-4.3,6.5-4.9c2.5-0.4,6.1-0.6,10.6-0.6h4
		c4.9,0,8.4,0.5,10.3,1.5c1.5,0.7,2.5,2.1,3.1,4.1c0.2,0.8,0.4,2.6,0.4,5.2h-8.7C1692.1,533.4,1691.7,532.5,1691,532.1z"/>
	<path class="st2" d="M1721.1,545.1v8h-8.4v-8H1721.1z"/>
</g>
<path class="st2" d="M871.1,509c-6.7-7.3-5-21.9-5-21.9c-16.1,7.2-29.7,17.5-19.7,23.3c1.2,0.7,2.7,1.3,4.6,1.9l0,0
	c2.2,0.7,4.9,1.2,8.2,1.6c2.5,0.3,5.4,0.5,8.6,0.5c2.1,0,4.3-0.1,6.7-0.2c1.3-0.1,2.7-0.2,4.2-0.3c0.3,0,0.7-0.1,1-0.1
	c1.1-0.1,2.2-0.2,3.3-0.3c0.4,0,0.8-0.1,1.2-0.1c1.1-0.1,2.3-0.3,3.5-0.4c0.4,0,0.7-0.1,1.1-0.1c1.4-0.2,2.9-0.4,4.4-0.7
	c0.1,0,0.2,0,0.3,0c5.1-0.8,10.5-1.9,16-3.1c0,0,0,0,0.1,0c1.8-0.4,3.7-0.9,5.6-1.3c32.1-7.8,68.6-22,93.1-40.8
	c-60.6,0.6-98.6,5.4-113.7,13.3C881.5,496.3,871.1,509,871.1,509z M882.1,506.5c2.6-3.2,6-7.4,9.9-12.2c9-3.5,28.6-7.9,70.8-9.9
	C935.2,496.1,904.5,503.9,882.1,506.5z M1088.7,455c-2.7,0-5.3-0.7-7.6-2.3c12.2-10.2,27.8-18,33.8-18c0.5,0,0.9,0.1,1.3,0.2
	C1120.1,436.1,1102.8,455,1088.7,455z M1500.2,418.6c-2.3,0-4.5-0.6-6.5-2c10.4-8.7,23.7-15.3,28.8-15.3c0.4,0,0.8,0,1.1,0.1
	C1527,402.5,1512.2,418.6,1500.2,418.6z M1721.5,421.7c-0.3-2.3-2.1-7.6-11.7-7.6c-2.7,0-6.1,0.4-10.2,1.1c-0.6,0.1-1.3,0.2-2,0.3
	c2.1-1.8,3.4-4.2,3.9-6.8c6.2-1.7,10.1-7,9.5-12.8c-0.6-5.5-5.6-11-15.3-11c-2.2,0-4.7,0.3-7.3,0.9c-18.5,4.1-49.1,13.2-59.3,29.4
	c-0.3,0.3-0.7,0.5-1,0.8c-0.7,0.1-1.5,0.2-2.2,0.3c1.3-1.5,2.5-2.9,3.7-4.2c1.3-1.5,2.5-2.8,3.6-4.1c3.1-3.7,3.8-7.3,3.7-10
	c3-0.3,6-1.6,9.4-4.1c3.8-2.8,6.1-5.1,8.1-7c0.7-0.6,1.3-1.3,2-1.9c1.1-1,1.9-2.2,2.6-3.4c1.9-1.6,3.4-3.1,4.7-4.4
	c0.7-0.6,1.3-1.3,2-1.9c2.6-2.4,4.1-5.8,4-9.5c0-3.7-1.6-7.1-4.1-9.3c-2.9-2.5-6-3.8-9.5-3.8c-2.5,0-5,0.7-7.5,2
	c-3.3,1.8-9.9,6.5-13.6,10.9c-0.9,1-1.5,2-2.1,3c-2.6,2-5.3,4.4-7.3,6.7c-3,3.6-3.8,6.8-3.9,9.4c-4.9,0.5-10.3,3.6-16.1,9.5
	c-5.4,5.5-10.9,9.5-16.8,12.2c-2.8,1.3-4.4,4-4.3,7c-1.7,1-3.4,1.9-5.1,2.7c-2.7,1.2-4.3,3.9-4.3,6.8c-1.1,0.2-2.1,0.3-3.1,0.5
	c3.7-4.5,7.4-8.8,11.2-12.9c7.7-7.6,15.1-14.2,21.4-19.2c2.9-2.3,4.7-4.6,5.8-6.7c1.2-1,2.4-2,3.6-3c8.7-7,7.7-14.1,6.8-16.8
	c-1.7-5.3-6.9-9.3-12.7-9.7c-0.3,0-0.5,0-0.8,0c-5.8,0-10.5,3.7-16.3,8.4c-2.2,1.8-4.7,3.8-7.5,5.8c-6,4.3-12.3,4.8-14.8,4.8
	c-3.6,0-6.6,2.7-7,6.3c-0.1,1.1,0,2.2,0.4,3.2c-1.1,0.1-2.1,0.2-2.7,0.2c-3.6,0-6.6,2.7-7,6.3c-0.3,2.9,1.2,5.7,3.7,7
	c-4.9,4.7-9.3,9.6-12.8,13.9c-0.7,0.2-1.4,0.4-2.1,0.5c4.1-5.8,5.6-12.5,1.9-21.5c-1.8-4.4-6.1-9.7-16.1-9.7c-3.3,0-7.3,0.6-12,1.7
	c-16.7,4.1-35.1,16.5-49.3,32.9c-1.2,1.1-2.4,2.3-3.6,3.4c-1.1,0.2-2.3,0.4-3.4,0.7c4.3-10.4,2.7-17.1,0.3-23.4
	c-1.1-2.9-4.2-7.6-13.5-7.6c-9.4,0-23.2,4.9-35.1,12.4c-12.5,7.9-25.1,17.2-30.5,21.3c0.7-0.9,1.4-1.7,2.1-2.5
	c3.8-4.5,6.3-7.5,7.5-10.7c1.5-4.2,0.7-9-2-12.9c-3-4.2-7.6-6.6-12.9-6.6c-1.5,0-3,0.2-4.6,0.6c-1.1,0.3-3.7,1-19.6,13.3
	c-1.5-6.1-6.5-10.1-13-10.1c-1.5,0-2.9,0.2-4.3,0.6c-3.2,0.9-6.1,3.5-11,7.6c-0.7,0.6-1.4,1.2-2.2,1.8c-1.8-2.7-5.3-4.8-10.4-5
	c-1.3,0-2.8-0.1-4.4-0.1c-0.1,0-0.2,0-0.2,0c4.1-7.3,7.5-13.1,10.3-17.8c3.6-6.1,5.7-9.7,6.8-12.3c1.8-4.3,1.7-9.2-0.2-13.4
	c-1.8-4-5-6.9-9-8.2c-2-0.7-4-1-6.1-1h0c-5.2,0-10.6,2.1-18,7c-1.6,1-4.1,2.6-7.2,4.5c-13.7,8.5-38.9,24.3-69.7,46.6
	c-15.5,1-35.8,2.3-35.8,2.3l-6.5,0.4v6.5c0,0.9,0,1.7,0.1,2.6c-1.8,0.1-2.9,0.2-2.9,0.2l-6.5,0.4v6.5c0,8.4,1.9,13.8,6.5,17
	c-4.3,3.4-8.8,6.8-13.9,10.2c-0.1-0.1-0.2-0.2-0.3-0.3c-2.8-2.9-6.6-2.9-7.8-2.9c-2.1,0-4.5,0.4-7.4,0.8l-1.1,0.2
	c-0.9,0.1-2.2,0.4-3.8,0.9c3.9-5.3,6.1-11.5,5.3-19.5c-0.3-3.4-2.8-14.4-20-14.4c-6.6,0-12.6,1.6-14.9,2.2
	c-1.2,0.3-22.9,6.9-42.6,25.9c2.5-10.1,2.3-20.4-0.9-29.4c-4.3-12.1-15.8-27.9-46.5-34.4c-11.7-2.5-24.7-3.7-38.6-3.7
	c-41.7,0-85.2,11.5-104.3,19.1c-7.5,3-10.5,7.2-11.7,10.7c-10.9,5.4-10.3,13.5-9.8,15.9c1.3,6.6,7.7,11.4,15.2,11.4
	c1.9,0,3.7-0.3,5.5-0.9c2.6-0.9,11.8-3.6,20.2-3.6c3.9,0,7,0.6,8.8,1.8c1.2,0.7,2.5,1.1,3.8,1.1c0.6,0,1.1-0.1,1.7-0.2
	c-8.9,10.2-18.8,21.7-25.9,30c-24,5.2-41.1,10.3-49.2,23.5c-6,4.1-10.2,9.4-12.5,16.6c-6.5,20.5,7.1,33.4,19.7,40.6
	c7.8,4.5,18.2,6.7,31.9,6.7c14.6,0,33.2-2.6,55.2-7.8c47.3-11.2,79.3-27.1,106.2-53h0c-2.8,13.5,3.9,20.5,9.6,24.8
	c5.5,4.1,11.2,6.2,17,6.2c5.4,0,10.6-1.9,15.4-5.6c1.2-0.9,2.6-2.1,4.2-3.3c6.2-5,14.6-11.8,25-18c0.4,3.8,1.8,7.3,4.3,10.2
	c6.1,7.1,12.2,8.5,16.3,8.5c1.3,0,2.6-0.2,3.9-0.5c2.3-0.5,4.7-1.1,49-37.4c17.8-14.6,35.4-29.3,40.8-33.7l30.2-2.8
	c-5.6,11.7-13.5,29.1-14.7,36.8c-1.4,8.5,1.2,18,6.5,24.3c3.6,4.2,8.2,6.5,12.9,6.5c0.3,0,0.6,0,0.9,0c3.9-0.2,9.6-2.3,23.2-16
	c0.9-0.9,1.8-1.9,2.7-2.8c1.4,1.8,3.2,3.3,5.1,4.4c1.9,1.1,3.9,1.6,6,1.6c7.1,0,11.7-6.2,14-9.2c0.5-0.6,1.1-1.4,1.8-2.3
	c3.6-2.1,6.1-5.4,7.6-7.4c1-1.4,2.7-3.5,4.9-6.1c-2.9,8.2-0.8,15.6,5.4,18.8c3.1,1.6,6.7,3.2,10.5,3.2c2.9,0,5.5-0.9,7.5-2.7
	c1.3-1.2,2.3-2.7,4.1-5.5c0.4-0.6,0.8-1.3,1.3-2.1c1.5-0.4,2.8-1.2,4-2.2c0.9-0.8,1.7-1.8,2.7-3.3c1.3,5.2,4.4,9.6,9.3,12.8
	c3,2,6.3,3,9.8,3c0.4,0,0.8,0,1.2,0c-0.3,0.3-0.5,0.6-0.8,1c-0.3,0.3-0.5,0.5-0.8,0.8c-1.8,1.8-3.6,3.6-5.4,5.4
	c-11.3,11.3-12.2,22.9-9.5,29.4c2.1,5.2,6.8,8.4,12,8.4c3.7,0,9.3-1.5,15-8.8c0.8-1,1.7-2.2,2.7-3.4c2.1-1.3,4.4-3.3,6.7-6.3
	c10.1-12.9,34.2-42.8,46.4-57.5c2.5-1.7,5.1-2.9,7.6-3.8c0.3,9.8,3.9,15.8,11.8,20.8c3.5,2.3,7.7,3.5,12,3.5c6.9,0,14-3,20-8.5
	c5.6-5.2,16.7-13.3,27.1-18.9c-0.3,0.4-0.5,0.8-0.8,1.3c-2.8,4.3-5.2,8.1-6.7,11.1c-4.9,10.4-0.4,18.4,5,22c2.8,1.9,6.1,3,9.2,3
	c4.5,0,8.6-2.2,11.1-6.1c0.4-0.6,1.6-2.4,3.4-4.7c2.4-1,4.5-2.7,6-5c0.5-0.7,2-3,4.4-5.9c4.3-3.7,9.4-7.3,15.2-9.8
	c-2.2,5.9-3.2,12.2,0.1,16.7c0.2,0.3,0.4,0.6,0.6,0.9c2.1,2.9,5.6,7.8,11.7,7.8c3.9,0,7.5-2.1,10.8-6.2c0.4-0.5,0.8-1.1,1.3-1.7
	c0.8-1,1.6-2.1,2.6-3.2c1.9-1,3.8-2.6,5.5-4.8c0.4-0.5,0.8-1.1,1.3-1.7c1-1.3,2.1-2.7,3.4-4.3c2.8-2.4,5.9-4.8,9.5-6.9
	c-1.4,1.5-2.5,3.2-3.1,4.9c-1.6,1-3,2-4.1,2.8c-5.3,4.1-7.4,10-5.5,15.6c1.8,5.4,7.1,8.8,13.3,8.8c7.5,0,16.1-5.4,23.6-10.1
	c1.7-1.1,3.4-2.1,4.9-3c7.2-4.2,31.5-16.7,57.3-24.3c4.7-1.4,14.9-5.2,16-12.2C1717.2,431.4,1722.3,427.5,1721.5,421.7z M1640.5,370
	c2.2-2.6,5.8-5.5,8.8-7.5l0,0l0,0c0.5-0.4,1-0.7,1.5-1c0,0,0,0,0,0c0.5-0.3,0.9-0.6,1.3-0.8c1.6-0.9,2.9-1.2,4.1-1.2
	c2.2,0,3.8,1.1,4.9,2.1c1.7,1.5,2.7,5.8-0.1,8.5c-0.5,0.4-0.9,0.8-1.3,1.2l0,0c-2.3,2.2-4.3,4.3-8.3,7.3c-2.7,2-4.8,2.8-6.5,2.8
	c-1.3,0-2.4-0.4-3.5-1.2C1638.9,378.4,1636.2,375.1,1640.5,370z M1714.6,423c0,0.1-0.1,0.3-0.1,0.4c0,0,0,0,0,0.1
	c-0.1,0.1-0.1,0.3-0.2,0.4c0,0,0,0,0,0c-0.1,0.2-0.2,0.3-0.4,0.5c0,0,0,0-0.1,0.1c-0.3,0.3-0.7,0.7-1.1,1c0,0,0,0-0.1,0
	c-0.5,0.3-1,0.7-1.6,1c0,0,0,0,0,0c-2,1.2-4.6,2.3-7.6,3.2c-26.7,7.9-51.4,20.7-58.9,25c-7.5,4.3-18,12.1-25,12.1s-9.8-7.1-3.6-12
	c6.2-4.8,24.9-14.6,45.4-23.3c-2.5,0.1-4.6,0.2-6.7,0.2c-5.8,0-10.8-0.8-19.1-4.1c-26.6,5.9-39.6,24.5-45.7,32.2
	c-2.1,2.6-3.8,3.6-5.4,3.6c-2.9,0-5-3.6-6.7-5.9c-2.6-3.6,1.7-14.3,7.9-22.8c-27.2,1.2-45.7,27.8-48.3,31.8c-1.4,2.1-3.3,3-5.3,3
	c-1.8,0-3.7-0.7-5.3-1.8c-3.3-2.2-5.7-6.8-2.6-13.3c3.1-6.5,13-19.4,16.5-28.4c-15.5,2-39.3,19.7-47.1,26.9
	c-4.9,4.5-10.3,6.7-15.3,6.7c-3,0-5.8-0.8-8.2-2.4c-6.5-4.2-9.9-8.7-8.1-24.1c0,0-16,2-24.9,12.4c-8.9,10.3-39.5,48.1-51.4,63.5
	c-3.4,4.3-6.7,6.2-9.5,6.2c-7.4,0-10.5-13,2.4-25.9c14.3-14.3,27.7-26.4,42.7-49.6c-20.8,20-32.8,30.6-41.8,30.6
	c-2.2,0-4.2-0.6-6.1-1.8c-9.8-6.4-7.6-18.6-1.7-28.3c-16.8,7.3-25.5,26.9-28,29.1c-0.8,0.7-1.8,1-2.9,1c-2.3,0-5-1.2-7.4-2.4
	c-3.4-1.8-3.7-6.6-1.4-11.9c2.3-5.3,7.1-16,16.5-29.7c-16.2,6.8-40.2,36.2-43.5,40.5c-2.6,3.4-5.3,6.5-8.4,6.5
	c-0.8,0-1.7-0.2-2.6-0.7c-4.2-2.3-6.4-7.5-3.6-14c0,0-23,27.1-31.2,27.5c-0.2,0-0.3,0-0.5,0c-8,0-14.2-12.3-12.6-22.7
	c1.7-10.6,19.6-45.9,19.6-45.9l-44.7,4.1c0,0-83.6,69.9-88.6,71.1c-0.8,0.2-1.6,0.3-2.4,0.3c-4.1,0-7.8-2.5-11-6.1
	c-3.8-4.3-3.6-11.1,0.6-18.9c-20.4,9.4-35.8,23.1-43.6,29.2c-3.9,3-7.7,4.2-11.1,4.2c-5,0-9.5-2.4-12.8-4.9
	c-4.9-3.7-10.6-9.1-5.4-23.1c0,0-4.2-2.9-10.7-3.6c-27.9,27.9-61,43.2-105.5,53.7c-22.6,5.3-40.1,7.6-53.6,7.6
	c-13,0-22.1-2.1-28.4-5.7c-12.8-7.3-21.4-17.4-16.6-32.5c3.4-10.5,12.4-16.2,27.5-20.7c0.8-0.3,1.7-0.5,2.6-0.8
	c0.7-0.2,1.5-0.4,2.2-0.6c0.3-0.1,0.6-0.1,0.8-0.2c5.2-1.4,11.1-2.7,17.6-4.1c0,0,41.8-49.1,53.5-61.5c1.2-1.3,2.6-1.8,4.2-1.8
	c5.8,0,12.9,7.7,11.3,11.4c-0.1,0.2-0.2,0.4-0.3,0.5c-0.1,0.2-0.3,0.3-0.4,0.5c0,0.1-0.1,0.1-0.1,0.2c-0.1,0.2-0.3,0.3-0.4,0.5
	c-0.1,0.1-0.1,0.2-0.2,0.2c-0.2,0.2-0.4,0.4-0.5,0.6c-0.1,0.1-0.1,0.1-0.2,0.2c-6.5,7.7-25.2,28.6-41.3,44.5
	c3.6-0.6,7.4-1.2,11.5-1.8l0,0l0,0c3.8-0.5,7.7-0.9,11.9-1.3c0.1,0,0.2,0,0.3,0c4-0.4,8.3-0.7,12.7-1c0.2,0,0.5,0,0.7,0
	c2.1-0.1,4.3-0.2,6.5-0.3c0.3,0,0.6,0,0.9,0c2-0.1,4.1-0.2,6.2-0.2c0.3,0,0.5,0,0.8,0c2.2-0.1,4.5-0.1,6.7-0.1c0.5,0,1,0,1.5,0
	c2.3,0,4.7-0.1,7.1-0.1c2.6,0,5.3,0,8,0.1c0.4,0,0.8,0,1.2,0c2.7,0,5.4,0.1,8.2,0.2c0.2,0,0.5,0,0.7,0c8.4,0.3,17.1,0.7,26.1,1.3
	c15.3-9,29.3-39.6,11.3-52.9c-8.9-6.5-23.2-9.7-43.2-9.7c-20.7,0-47.4,3.4-80.1,10.2l4.3,7.6c0.1,0.1,0,0.3-0.2,0.3c0,0-0.1,0-0.1,0
	c-3.3-2.1-7.7-2.8-12.5-2.8c-7.8,0-16.5,2.1-22.4,4c-1.1,0.4-2.3,0.5-3.3,0.5c-8.2,0-13.8-9.6-0.5-14.9c5-2,12.8-4.6,22.5-7.3
	c0.3-0.1,0.5-0.1,0.8-0.2c1.1-0.3,2.2-0.6,3.4-0.9c0.2,0,0.3-0.1,0.5-0.1c1.3-0.3,2.6-0.7,4-1c0.3-0.1,0.6-0.1,0.8-0.2
	c1.1-0.3,2.3-0.6,3.5-0.8c0.3-0.1,0.6-0.1,0.9-0.2c1.4-0.3,2.9-0.6,4.3-1c0.2,0,0.5-0.1,0.7-0.1c1.3-0.3,2.5-0.5,3.8-0.8
	c0.4-0.1,0.7-0.1,1.1-0.2c1.5-0.3,3.1-0.6,4.6-0.9c0.1,0,0.1,0,0.2,0c1.5-0.3,3-0.5,4.5-0.8c0.4-0.1,0.8-0.1,1.2-0.2
	c1.4-0.2,2.9-0.5,4.3-0.7c0.2,0,0.4-0.1,0.6-0.1c1.6-0.2,3.2-0.5,4.9-0.7c0.4-0.1,0.8-0.1,1.3-0.2c1.4-0.2,2.7-0.3,4.1-0.5
	c0.4,0,0.7-0.1,1.1-0.1c1.7-0.2,3.3-0.4,5-0.5c0.4,0,0.8-0.1,1.1-0.1c1.4-0.1,2.8-0.2,4.1-0.3c0.4,0,0.9-0.1,1.3-0.1
	c1.7-0.1,3.4-0.2,5.1-0.3c0.3,0,0.5,0,0.8,0c1.5-0.1,3-0.1,4.4-0.2c0.5,0,0.9,0,1.4,0c1.7,0,3.5-0.1,5.2-0.1c12.5,0,25.1,1,37.1,3.6
	c1.5,0.3,3,0.7,4.4,1c0.4,0.1,0.9,0.2,1.3,0.4c1,0.3,2,0.6,2.9,0.9c0.4,0.1,0.9,0.3,1.3,0.4c1,0.3,1.9,0.7,2.9,1
	c0.3,0.1,0.6,0.2,1,0.4c1.2,0.5,2.4,1,3.5,1.5c0.2,0.1,0.5,0.2,0.7,0.3c0.9,0.4,1.7,0.8,2.6,1.3c0.3,0.2,0.7,0.4,1,0.6
	c0.7,0.4,1.4,0.8,2.1,1.2c0.3,0.2,0.6,0.4,0.9,0.6c0.8,0.5,1.6,1.1,2.4,1.6c0.1,0.1,0.2,0.2,0.3,0.2c0.9,0.6,1.7,1.3,2.5,2
	c0.2,0.2,0.4,0.4,0.7,0.6c0.6,0.5,1.1,1,1.6,1.5c0.2,0.2,0.5,0.5,0.7,0.7c0.5,0.5,1,1,1.4,1.6c0.2,0.2,0.4,0.4,0.6,0.6
	c0.6,0.7,1.2,1.5,1.7,2.2c0.1,0.1,0.2,0.3,0.3,0.4c0.4,0.6,0.9,1.3,1.3,1.9c0.2,0.3,0.3,0.5,0.5,0.8c0.3,0.5,0.6,1.1,0.9,1.6
	c0.1,0.3,0.3,0.6,0.4,0.8c0.3,0.6,0.6,1.3,0.8,1.9c0.1,0.2,0.2,0.4,0.2,0.6c0.3,0.8,0.6,1.6,0.9,2.5c0.1,0.2,0.1,0.5,0.2,0.8
	c0.2,0.6,0.3,1.2,0.5,1.8c0.1,0.3,0.1,0.6,0.2,0.9c0.1,0.6,0.2,1.2,0.3,1.7c0,0.3,0.1,0.6,0.1,0.9c0.1,0.8,0.2,1.6,0.3,2.4
	c0,0.1,0,0.3,0,0.4c0.1,0.8,0.1,1.5,0.1,2.3c0,0.3,0,0.6,0,0.9c0,0.6,0,1.1,0,1.7c0,0.3,0,0.7,0,1c0,0.6-0.1,1.2-0.1,1.8
	c0,0.3,0,0.6-0.1,0.8c-0.1,0.8-0.2,1.7-0.4,2.5c0,0.3-0.1,0.5-0.2,0.8c-0.1,0.6-0.2,1.2-0.4,1.8c-0.1,0.3-0.2,0.7-0.2,1
	c-0.1,0.5-0.3,1.1-0.4,1.6c-0.1,0.3-0.2,0.7-0.3,1c-0.2,0.6-0.4,1.3-0.6,1.9c-0.1,0.2-0.1,0.4-0.2,0.6l0,0v0
	c-2.3,6.4-5.7,12.5-9.8,17.6c0,0,4.5,1.7,8.4,1.9c17.3-27,44.3-38.6,53.2-41.4c0,0,0.1,0,0.1,0c0.3-0.1,0.6-0.2,0.9-0.3
	c3.3-1,8.2-1.9,13-1.9c6.5,0,12.5,1.8,13.1,8.1c0.1,0.9,0.1,1.7,0.1,2.5c0,0.2,0,0.4,0,0.5c0,0.7-0.1,1.5-0.2,2.2
	c0,0.2-0.1,0.4-0.1,0.6c-0.1,0.5-0.2,1.1-0.3,1.6c-0.1,0.3-0.1,0.6-0.2,0.8c-0.1,0.5-0.3,1-0.5,1.4c-0.1,0.3-0.2,0.6-0.4,0.9
	c-0.2,0.5-0.5,1-0.7,1.5l0,0c-4.3,7.9-13.7,13.4-23.9,19.9c-5.8,3.7-10.7,5.1-14.8,5.1c-6.4,0-11.2-3.3-15.5-6.6c0,0-4.8,6-7.6,8.8
	c-3.8,3.8-5.1,10-2.4,12.4l0,0c0.1,0.1,0.2,0.2,0.3,0.2c0.7,0.5,1.5,0.8,2.6,0.8c2,0,4.6-0.9,8.1-3.1c10.8-6.9,37.4-17.1,52.3-22h0
	c0,0,0,0,0,0c0.6-0.2,1.1-0.4,1.7-0.5c0,0,0,0,0,0c0.5-0.2,1-0.3,1.5-0.5c0,0,0,0,0.1,0c0.5-0.1,0.9-0.3,1.4-0.4
	c0.1,0,0.1,0,0.2-0.1c0.4-0.1,0.8-0.2,1.1-0.3c0.1,0,0.2-0.1,0.3-0.1c0.3-0.1,0.6-0.2,0.9-0.2c0.1,0,0.2-0.1,0.4-0.1
	c0.2-0.1,0.5-0.1,0.7-0.2c0.2,0,0.3-0.1,0.5-0.1c0.1,0,0.3-0.1,0.4-0.1c0.3-0.1,0.5-0.1,0.7-0.1c3-0.4,5.6-0.8,7.5-0.8
	c2.1,0,3.3,0.5,3.2,2.2c-0.1,1.5-0.9,2-2.4,2.3l0,0l0,0c-0.5,0.1-1.1,0.2-1.7,0.3c-0.4,0.1-0.9,0.1-1.3,0.2l0,0
	c-1.1,0.2-2.5,0.5-3.9,1c-4.8,1.6-10.6,9.5-7.2,9.5c0.7,0,1.6-0.3,3-0.9c27.6-13.1,41.8-28,58.4-40.9c-14.5-0.8-16.3-4.2-16.3-14.3
	c0,0,0.2,0,0.5,0c0.1,0,0.2,0,0.4,0c0.2,0,0.3,0,0.5,0c4-0.3,16.3-1,27.9-1.8h0c2.9-0.2,5.8-0.4,8.6-0.5
	c38.8-28.3,69.7-46.6,78.3-52.2c1.9-1.2,3.6-2.2,5.2-3.1l0,0l0,0c1.3-0.7,2.5-1.2,3.6-1.6c0.1-0.1,0.3-0.1,0.4-0.1
	c0.3-0.1,0.6-0.2,0.9-0.3c0.4-0.1,0.8-0.2,1.1-0.3c0.2,0,0.3-0.1,0.5-0.1c0.3-0.1,0.6-0.1,0.9-0.1c0.1,0,0.3,0,0.4-0.1
	c0.4,0,0.8-0.1,1.2-0.1c1.3,0,2.6,0.2,3.9,0.6c4.8,1.6,7,7.6,5,12.3c-0.1,0.3-0.3,0.6-0.4,0.9c-0.1,0.1-0.1,0.2-0.2,0.4
	c-0.1,0.2-0.2,0.4-0.3,0.7c-0.1,0.2-0.2,0.3-0.3,0.5c-0.1,0.2-0.3,0.5-0.4,0.7c-0.1,0.2-0.2,0.4-0.3,0.5l0,0l0,0
	c-3.5,6.3-10.8,18-20.6,36.4c0,0,1.6-0.1,4-0.1l0,0c0,0,0,0,0,0c0.6,0,1.2,0,1.8,0c0,0,0,0,0,0c0.6,0,1.3,0,2,0c0,0,0,0,0.1,0
	c0.7,0,1.4,0,2.1,0c0,0,0,0,0,0c0.7,0,1.4,0,2.2,0c1.5,0,2.9,0,4.2,0.1c6.6,0.2,6.6,5,2.4,6c-0.3,0.1-0.7,0.2-1,0.2c0,0-0.1,0-0.1,0
	c-0.3,0.1-0.7,0.1-1.1,0.2l0,0l0,0c-4.1,0.7-10,1.3-21.5,1.9c0,0-18.2,38.1-20.6,43.4c-2.2,4.8-2,8.2,1,8.2c0.4,0,0.8-0.1,1.3-0.2
	c4.2-1,17.3-12.8,22.2-18.4c2.7-3.1,4.6-4.1,6.1-4.1c1.2,0,2,0.7,2.8,1.5l14-21.9l-8.5,0.4c0,0,0,0,0,0c-0.3,0-0.4-0.4-0.1-0.6
	c11-6.3,19.5-14.5,24.8-18.8l0,0c0,0,0,0,0.1-0.1c0.4-0.3,0.8-0.6,1.2-0.9c0,0,0,0,0.1,0c0.4-0.3,0.7-0.5,1.1-0.7
	c0.1-0.1,0.2-0.1,0.2-0.1c0.3-0.2,0.5-0.3,0.7-0.4c0.3-0.2,0.6-0.3,0.8-0.3c0.8-0.2,1.6-0.4,2.4-0.4c3.3,0,6.2,2.2,6.5,6.6
	c0,0.4,0,0.8-0.1,1.2c0,0.1,0,0.2-0.1,0.3c-0.1,0.3-0.1,0.6-0.3,1c0,0.1-0.1,0.2-0.1,0.3c-0.1,0.4-0.3,0.7-0.5,1.1
	c0,0.1-0.1,0.2-0.1,0.2c-0.2,0.5-0.5,0.9-0.8,1.4l0,0l0,0c-3,5-9.4,11.5-16.9,20.5c0,0,30.4-25.3,42.3-33.5l0,0l0,0
	c0.5-0.3,0.9-0.6,1.4-0.9c0.1,0,0.1-0.1,0.2-0.1c0.3-0.2,0.7-0.4,1-0.6c0.1,0,0.2-0.1,0.2-0.1c0.3-0.2,0.5-0.3,0.7-0.4
	c0.1,0,0.1-0.1,0.2-0.1c0.3-0.1,0.5-0.2,0.6-0.3c1-0.3,1.9-0.4,2.8-0.4c6.3,0,9.8,5.9,8.3,10.2c-0.1,0.3-0.2,0.6-0.4,0.9
	c-0.1,0.2-0.2,0.4-0.4,0.6c-0.1,0.1-0.1,0.2-0.2,0.3c-0.2,0.3-0.4,0.6-0.6,0.9c0,0,0,0.1-0.1,0.1c-0.3,0.4-0.5,0.7-0.9,1.1l0,0l0,0
	c-4,5.2-11.9,13.2-19.5,26.1c0,0,8.1-5.3,20.5-7c0,0,16.6-12.7,32.8-23c5.3-3.4,11.1-6.2,16.4-8.1h0l0,0c2.1-0.8,4.2-1.4,6.2-1.9
	c0,0,0,0,0,0c0.6-0.2,1.2-0.3,1.8-0.4c0,0,0.1,0,0.1,0c0.6-0.1,1.1-0.2,1.6-0.3c0.1,0,0.1,0,0.2,0c0.5-0.1,1-0.2,1.4-0.2
	c0.1,0,0.2,0,0.3,0c0.4-0.1,0.9-0.1,1.3-0.1c0.1,0,0.2,0,0.4,0c0.5,0,1-0.1,1.5-0.1c3.7,0,6.2,1,7,3.1c0.1,0.3,0.2,0.5,0.3,0.8
	c0,0.1,0,0.1,0.1,0.2c0.1,0.2,0.2,0.5,0.2,0.7c0,0,0,0.1,0,0.1c0.1,0.3,0.2,0.6,0.3,0.9c0,0,0,0,0,0.1c0.1,0.3,0.2,0.5,0.2,0.8
	c0,0,0,0.1,0,0.1c0.2,0.6,0.3,1.2,0.4,1.9c0,0,0,0.1,0,0.1c0.1,0.3,0.1,0.7,0.1,1c0,0,0,0,0,0c0.1,0.7,0.1,1.5,0.1,2.2c0,0,0,0,0,0
	c0,2-0.4,4.2-1.2,6.7c0,0,0,0,0,0c-0.3,1-0.7,2.1-1.2,3.2l0,0l0,0c-1.7,4-4.5,8.8-8.8,14.7c0,0,3.6-1.8,8.9-3.6l0,0
	c0.5-0.2,1-0.4,1.6-0.5c3.8-1.2,8.3-2.4,13-3c11.9-15.5,29.6-29.7,46.7-35c1-0.3,2.1-0.6,3.1-0.9c4.1-1,7.6-1.5,10.3-1.5
	c5.2,0,8.2,1.8,9.7,5.4c0.3,0.7,0.6,1.5,0.8,2.2c0.1,0.4,0.2,0.8,0.3,1.2c0.1,0.3,0.1,0.5,0.2,0.8c0.1,0.5,0.2,1,0.2,1.6
	c0,0.1,0,0.2,0,0.4c0,0.6,0,1.1,0,1.6c0,0.1,0,0.1,0,0.2c0,0.6-0.1,1.1-0.2,1.7c0,0,0,0,0,0.1c-1.4,6.3-8,11.3-18.4,18.6
	c-7.1,4.9-12.8,6.6-18.1,6.6c-5.1,0-9.7-1.5-14.6-3c0,0-4.2,4.2-8.1,9.2c-2.8,3.5-4.6,9.5,0.6,9.5c2.1,0,5.5-1,10.5-3.6
	c17.1-9,33.1-16.5,60-23.1c0,0,13.8-20.2,30.6-32.6l-10.6-2.4h0l-0.9-0.2c-0.2,0-0.2-0.3,0-0.3c0.3,0,0.6,0,0.9,0c0,0,0.1,0,0.1,0
	c0.3,0,0.7,0,1.1-0.1c3.9-0.3,10.4-1.5,16.7-6c5.5-4,9.6-7.6,13-10c0.3-0.2,0.6-0.4,0.9-0.6c0.1-0.1,0.2-0.1,0.3-0.2
	c0.2-0.1,0.4-0.3,0.7-0.4c0.1-0.1,0.3-0.1,0.4-0.2c0.2-0.1,0.4-0.2,0.6-0.3c0.1-0.1,0.3-0.1,0.4-0.2c0.2-0.1,0.4-0.2,0.6-0.3
	c0.1-0.1,0.3-0.1,0.4-0.2c0.2-0.1,0.4-0.1,0.6-0.2c0.1,0,0.2-0.1,0.3-0.1c0.2-0.1,0.4-0.1,0.6-0.1c0.1,0,0.2,0,0.3-0.1
	c0.3,0,0.6-0.1,0.9-0.1c0.1,0,0.2,0,0.4,0c0.3,0,0.5,0.1,0.8,0.1c0,0,0,0,0.1,0c0.3,0.1,0.5,0.1,0.8,0.2c0,0,0.1,0,0.1,0
	c0.3,0.1,0.5,0.2,0.8,0.3c0,0,0.1,0,0.1,0c0.3,0.1,0.5,0.3,0.7,0.4c0,0,0.1,0,0.1,0.1c0.2,0.2,0.5,0.3,0.7,0.5c0,0,0,0,0,0
	c2.8,2.2,4,6.2-0.5,10.8l0,0l0,0c-0.5,0.5-1.1,1.1-1.8,1.6c-17.5,14-40.5,37.1-57,61.5c3.9-2.1,9.8-4.8,17.4-6.7c0,0,0,0,0,0
	c5.1-1.3,11-2.1,17.8-2.1c0.7,0,1.4,0,2.1,0c0,0,4-7.3,9.5-14l-7.7-1.5c-0.4-0.1-0.4-0.6-0.1-0.7c6.9-3.1,13-7.6,18.9-13.6
	c2-2,3.9-3.6,5.6-4.8c0.3-0.2,0.7-0.4,1-0.6c0.2-0.1,0.3-0.2,0.5-0.3c0.4-0.2,0.8-0.5,1.2-0.6c0.1-0.1,0.3-0.1,0.4-0.2
	c0.3-0.2,0.7-0.3,1-0.4c0.1,0,0.2-0.1,0.3-0.1c0.4-0.1,0.8-0.2,1.1-0.3c0.1,0,0.2,0,0.3,0c0.4-0.1,0.7-0.1,1.1-0.1
	c0.3,0,0.6,0,0.9,0.1l0,0c0.4,0.1,0.8,0.2,1.1,0.4c1.7,0.9,4,2.7,4.6,5.3c0,0,0,0,0,0.1c0.1,0.2,0.1,0.5,0.1,0.7c0,0,0,0.1,0,0.1
	c0,0.2,0,0.4,0,0.7c0,0.1,0,0.2,0,0.2c0,0.2,0,0.4-0.1,0.6c0,0.1-0.1,0.2-0.1,0.3c0,0.2-0.1,0.4-0.2,0.6c-0.1,0.1-0.1,0.3-0.2,0.4
	c-0.1,0.2-0.1,0.3-0.2,0.5c-0.1,0.2-0.2,0.4-0.3,0.6c-0.1,0.1-0.1,0.3-0.2,0.4c-0.2,0.3-0.5,0.7-0.8,1c-0.3,0.3-0.6,0.7-0.9,1l0,0
	c-4.8,5.6-12.1,13.3-20.6,26.2c2.6-1.7,6.1-3.5,10.5-5l0,0l0,0c4.6-1.6,10.1-2.8,16.4-3.1c5-15.5,36.5-25.2,53.6-29.3
	c0.1,0,0.1,0,0.2,0c0.5-0.1,1-0.2,1.4-0.3c0.5-0.1,1-0.2,1.5-0.3c2.2-0.5,4.1-0.7,5.7-0.7c0.6,0,1.2,0,1.8,0.1
	c0.2,0,0.3,0.1,0.5,0.1c0.4,0.1,0.7,0.1,1,0.2c0.2,0,0.4,0.1,0.5,0.2c0.3,0.1,0.6,0.2,0.8,0.3c0.2,0.1,0.3,0.1,0.5,0.2
	c0.2,0.1,0.4,0.2,0.6,0.3c0.1,0.1,0.3,0.2,0.4,0.3c0.2,0.1,0.3,0.2,0.5,0.4c0.1,0.1,0.2,0.2,0.3,0.3c0.1,0.1,0.3,0.3,0.4,0.4
	c0.1,0.1,0.2,0.2,0.3,0.4c0.1,0.1,0.2,0.3,0.2,0.4c0.1,0.1,0.1,0.3,0.2,0.4c0.1,0.1,0.1,0.3,0.1,0.4c0,0.1,0.1,0.3,0.1,0.4
	c0,0.1,0,0.3,0,0.4c0,0.2,0,0.3,0,0.5c0,0.1,0,0.2-0.1,0.4c0,0.2-0.1,0.3-0.1,0.5c0,0.1-0.1,0.2-0.1,0.3c-0.1,0.2-0.1,0.3-0.2,0.5
	c-0.1,0.1-0.1,0.2-0.2,0.3c-0.1,0.2-0.2,0.3-0.4,0.5c-0.1,0.1-0.1,0.1-0.2,0.2c-0.2,0.2-0.3,0.3-0.5,0.5c-0.1,0.1-0.1,0.1-0.2,0.2
	c-0.2,0.2-0.4,0.3-0.7,0.4c-0.1,0-0.1,0.1-0.2,0.1c-0.3,0.1-0.5,0.3-0.9,0.4l0,0l0,0c-0.4,0.1-0.7,0.3-1.1,0.3
	c-7.9,1.8-8.8,1.3-20.2,10.5c-0.1,0.1-0.2,0.1-0.4,0.1c-0.2,0-0.5-0.1-0.6-0.4l-0.9-5.4c-9.3,3-24.4,9.9-22.4,14.2
	c1.1,2.3,8,3.4,17.3,3.4c1.9,0,3.9-0.1,6-0.1h0c1.7-0.1,3.5-0.2,5.2-0.3c0.2,0,0.3,0,0.5,0c1.7-0.1,3.5-0.3,5.3-0.5c0,0,0.1,0,0.1,0
	c1.7-0.2,3.5-0.4,5.2-0.7c0.4-0.1,0.7-0.1,1.1-0.2c1.7-0.3,3.5-0.5,5.2-0.8c3.9-0.7,6.8-1,9-1c0.4,0,0.8,0,1.1,0c0.1,0,0.2,0,0.3,0
	c0.3,0,0.6,0.1,0.9,0.1c0,0,0,0,0,0c0.3,0,0.5,0.1,0.8,0.2c0.1,0,0.1,0,0.2,0c0.2,0.1,0.4,0.1,0.6,0.2c0,0,0,0,0,0
	c0.2,0.1,0.3,0.2,0.4,0.3c0,0,0.1,0,0.1,0.1c0.1,0.1,0.2,0.2,0.3,0.3c0,0,0,0,0,0c0.1,0.1,0.1,0.2,0.2,0.3c0,0,0,0.1,0,0.1
	C1714.6,422.7,1714.6,422.8,1714.6,423C1714.6,423,1714.6,423,1714.6,423z M908.6,420.4c0.2,0,0.4-0.1,0.7-0.1
	c0.7,0.2,1.4,0.3,2.1,0.3c0.2,0,0.5,0,0.7,0c-1,1.1-1.9,2.2-3,3.4C909.2,422.8,909,421.6,908.6,420.4z M957,419.1c1.4-1.7,2-3.8,2-6
	c6.8-0.6,13.1-0.8,18.9-0.8c18.4,0,31.6,2.8,39.1,8.4c4,3,5.9,7.5,5.6,13.4c-0.3,5.9-2.7,12-5.9,17.1c-14.2-1-28.2-1.5-41.6-1.5
	c-17.1,0-33.2,0.8-47.6,2.3C941.4,437.2,954.3,422.5,957,419.1z M1290,433.5c0.4,1.4,1.2,2.7,2.2,3.6c-2.2,1.3-4.1,3.2-5.4,4.8
	c-2.1,2.4-5.3,5.5-8.5,8.3c2.9-6.2,6.7-14.1,9.9-20.7c0.7,0,1.3-0.1,1.9-0.1C1289.7,430.6,1289.6,432.1,1290,433.5z M1297.8,365.4
	c-11.4,6.4-28.1,16.5-63.6,43.1c0,0,6.8,0.1,15.3,0.1l0,0c1,0,2,0,3,0c0.2,0,0.3,0,0.5,0c1,0,2,0,3.1,0c1.4,0,2.8,0,4.1,0
	c4.4,0,8.7-0.1,12.4-0.2C1277.9,397.3,1286.2,383.4,1297.8,365.4z M1264.1,401.8c-1.5,0-3,0-4.6,0c2.7-1.9,5.2-3.6,7.6-5.2
	C1265.9,398.4,1265,400.1,1264.1,401.8z M1435.3,416c-9,9.3-21.4,19.5-42.6,30.1c-3,1.5-5.7,2.7-6.8,2.7c-1.1,0-0.7-1.2,2.2-4.5
	c16.6-18.7,27.5-23.2,45.6-31.2c0.6-0.3,1.2-0.4,1.7-0.4C1436.8,412.8,1437.3,413.9,1435.3,416z"/>
<g>
	<path class="st2" d="M1098.5,532.1c-0.7-0.4-1.7-0.6-3.1-0.6h-5.3c-2.7,0-4.4,0-5,0.1c-1.8,0.1-3,0.8-3.4,2.1
		c-0.3,0.7-0.4,2.1-0.4,4.2c0,2.9,0.1,4.8,0.3,5.5c0.5,1.8,1.9,2.7,4.3,2.7l5.8,0l4.8,0c2.1-0.1,3.3-1.1,3.5-3l0-1.1h8.7v1.4
		c0,2.3-0.3,4.1-0.8,5.5c-0.2,0.6-0.5,1.2-1,1.6c-1.3,1.4-3.8,2.3-7.2,2.6c-1.8,0.2-3.5,0.3-5.3,0.3c-0.8,0-1.9,0-3.4,0
		c-2.6,0-4.6,0-5.9-0.1c-1.3-0.1-2.6-0.2-3.8-0.3c-1.3-0.1-2.4-0.4-3.5-0.8c-1.3-0.4-2.3-1-3-1.9c-1.1-1.3-1.8-2.7-2-4.4
		c-0.3-1.8-0.4-4-0.4-6.5c0-2.5,0.1-4.7,0.3-6.7c0.1-1.1,0.3-2.1,0.7-3.1c1-2.7,3.2-4.3,6.5-4.9c2.5-0.4,6.1-0.6,10.6-0.6h4
		c4.9,0,8.4,0.5,10.3,1.5c1.5,0.7,2.5,2.1,3.1,4.1c0.2,0.8,0.4,2.6,0.4,5.2h-8.7C1099.6,533.4,1099.3,532.5,1098.5,532.1z"/>
	<path class="st2" d="M1131.9,553.4c-1.4,0-2.6,0-3.7-0.1c-2.7-0.1-4.8-1-6.2-2.5c-0.6-0.6-1.1-1.3-1.4-2c-0.8-1.7-1.2-4.8-1.2-9.3
		l0-3.7c0.1-2.5,0.4-4.6,0.9-6.3c0.7-2.1,2.1-3.6,4.4-4.4c1.6-0.6,5.9-0.9,12.8-0.9l6.3,0c4.5,0,7.4,0.3,8.8,0.8
		c3,1.1,4.8,3.3,5.2,6.7c0.1,1,0.2,2.4,0.2,4.2l0.1,4.7c0,1.9-0.1,3.6-0.2,5c-0.1,1.1-0.4,2.2-0.9,3.2c-1.4,3.1-4.1,4.7-8.1,4.7
		c-0.6,0-2.1,0-4.4,0L1131.9,553.4z M1143.1,546c1.4,0,2.5,0,3.1-0.1c1.2-0.2,2-0.7,2.5-1.7c0.5-0.9,0.7-3,0.7-6.2
		c0-1.7-0.1-2.9-0.2-3.5c-0.3-1.4-1-2.2-2.1-2.5c-0.8-0.2-1.8-0.4-2.8-0.4c-1.6,0-3.4-0.1-5.6-0.1h-3.2c-1.2,0-2.4,0.1-3.5,0.1
		c-1.4,0.1-2.5,0.6-3.1,1.5c-0.5,0.8-0.8,3.1-0.8,6.9c0,2.7,0.5,4.4,1.3,5.1c0.6,0.5,2.4,0.8,5.3,0.8L1143.1,546z"/>
	<path class="st2" d="M1182.6,524.4l16.5,21.4v-21.4h8.7v28.7h-13.9l-16.5-21.5v21.5h-8.7v-28.7H1182.6z"/>
	<path class="st2" d="M1251.3,524.4v7.4h-12.6v21.3h-8.7v-21.3h-12.6v-7.4H1251.3z"/>
	<path class="st2" d="M1286.4,524.4c1.2,0,2.4,0.1,3.6,0.2c2.7,0.3,4.5,1.2,5.5,2.9c0.4,0.7,0.7,1.4,0.8,2c0.3,1.4,0.4,2.8,0.5,4.3
		c0,2.4-0.3,4.2-1,5.3c-0.6,1.2-2.2,2.1-4.5,2.8c2.4,0.7,3.9,1.5,4.5,2.4c0.6,1,0.9,2.7,0.9,5.2v3.5h-8.7l-0.1-2.7
		c0-1.8-0.2-3-0.6-3.5c-0.5-0.6-1.6-0.9-3.4-0.9h-13.9v7.1h-8.7v-28.7H1286.4z M1269.8,531.8v6.8h12.2c0.9,0,1.8,0,2.8,0
		c0.7,0,1.3-0.1,1.8-0.3c0.9-0.4,1.3-1.4,1.3-3.1c0-1.2-0.3-2-0.9-2.6c-0.4-0.4-1.3-0.6-2.7-0.6l-2.6-0.1H1269.8z"/>
	<path class="st2" d="M1321.8,524.4h11.1l15.8,28.7h-9.9l-2.7-4.9h-17.7l-2.6,4.9h-9.9L1321.8,524.4z M1321.9,541.5h10.7l-5.2-9.8
		L1321.9,541.5z"/>
	<path class="st2" d="M1384.1,532.1c-0.7-0.4-1.7-0.6-3.1-0.6h-5.3c-2.7,0-4.4,0-5,0.1c-1.8,0.1-3,0.8-3.4,2.1
		c-0.3,0.7-0.4,2.1-0.4,4.2c0,2.9,0.1,4.8,0.3,5.5c0.5,1.8,1.9,2.7,4.3,2.7l5.8,0l4.8,0c2.1-0.1,3.3-1.1,3.5-3l0-1.1h8.7v1.4
		c0,2.3-0.3,4.1-0.8,5.5c-0.2,0.6-0.5,1.2-1,1.6c-1.3,1.4-3.8,2.3-7.2,2.6c-1.8,0.2-3.5,0.3-5.3,0.3c-0.8,0-1.9,0-3.4,0
		c-2.6,0-4.6,0-5.9-0.1c-1.3-0.1-2.6-0.2-3.8-0.3s-2.4-0.4-3.5-0.8c-1.3-0.4-2.3-1-3-1.9c-1.1-1.3-1.8-2.7-2-4.4
		c-0.3-1.8-0.4-4-0.4-6.5c0-2.5,0.1-4.7,0.3-6.7c0.1-1.1,0.3-2.1,0.7-3.1c1-2.7,3.2-4.3,6.5-4.9c2.5-0.4,6.1-0.6,10.6-0.6h4
		c4.9,0,8.4,0.5,10.3,1.5c1.5,0.7,2.5,2.1,3.1,4.1c0.2,0.8,0.4,2.6,0.4,5.2h-8.7C1385.2,533.4,1384.8,532.5,1384.1,532.1z"/>
	<path class="st2" d="M1437.4,524.4v7.4h-12.6v21.3h-8.7v-21.3h-12.6v-7.4H1437.4z"/>
	<path class="st2" d="M1447.7,524.4h8.7v28.7h-8.7V524.4z"/>
	<path class="st2" d="M1482.4,524.4l16.5,21.4v-21.4h8.7v28.7h-13.9l-16.5-21.5v21.5h-8.7v-28.7H1482.4z"/>
	<path class="st2" d="M1546.7,534.4c-0.1-1.8-1-2.7-2.7-2.8c-1,0-2.9-0.1-5.9-0.1l-5.4,0c-1.8,0-3.1,0.3-3.9,0.8
		c-0.9,0.6-1.4,1.8-1.5,3.6c-0.1,1.1-0.1,2.1-0.1,3.1c0,1.3,0,2.5,0.2,3.5c0.2,2.1,1.2,3.2,2.9,3.3c0.7,0.1,1.8,0.1,3.3,0.1h3.5l6,0
		c2.6,0,4-0.9,4-2.6v-0.9h-10.9v-5.9h19.6v1c0,4.9-0.1,8-0.3,9.2c-0.2,1.4-0.8,2.7-1.9,3.8c-1,1.1-2.2,1.7-3.8,2
		c-1,0.2-2,0.3-3.2,0.4c-2.5,0.2-5.9,0.3-10.2,0.3l-6.1,0c-2.6,0-4.5-0.2-5.7-0.6c-2.1-0.6-3.6-1.7-4.5-3.4
		c-0.9-1.5-1.4-3.7-1.5-6.6c-0.1-2.3-0.1-4.6-0.1-6.9c0-1,0-1.7,0-2.1c0-1.1,0.2-2.2,0.6-3.4c1.1-3.3,3.5-5.2,7.4-5.8
		c1.2-0.2,2.2-0.3,3.1-0.4c1.5-0.1,3.9-0.1,7.2-0.1c4.2,0,7.4,0,9.5,0.1c6,0.1,9.1,2.9,9.2,8.3v1.9H1546.7z"/>
	<path class="st2" d="M1593.9,524.4h8.7v28.7h-8.7V524.4z"/>
	<path class="st2" d="M1628.6,524.4l16.5,21.4v-21.4h8.7v28.7H1640l-16.5-21.5v21.5h-8.7v-28.7H1628.6z"/>
	<path class="st2" d="M1691,532.1c-0.7-0.4-1.7-0.6-3.1-0.6h-5.3c-2.7,0-4.4,0-5,0.1c-1.8,0.1-3,0.8-3.4,2.1
		c-0.3,0.7-0.4,2.1-0.4,4.2c0,2.9,0.1,4.8,0.3,5.5c0.5,1.8,1.9,2.7,4.3,2.7l5.8,0l4.8,0c2.1-0.1,3.3-1.1,3.5-3l0-1.1h8.7v1.4
		c0,2.3-0.3,4.1-0.8,5.5c-0.2,0.6-0.5,1.2-1,1.6c-1.3,1.4-3.8,2.3-7.2,2.6c-1.8,0.2-3.5,0.3-5.3,0.3c-0.8,0-1.9,0-3.4,0
		c-2.6,0-4.6,0-5.9-0.1c-1.3-0.1-2.6-0.2-3.8-0.3s-2.4-0.4-3.5-0.8c-1.3-0.4-2.3-1-3-1.9c-1.1-1.3-1.8-2.7-2-4.4
		c-0.3-1.8-0.4-4-0.4-6.5c0-2.5,0.1-4.7,0.3-6.7c0.1-1.1,0.3-2.1,0.7-3.1c1-2.7,3.2-4.3,6.5-4.9c2.5-0.4,6.1-0.6,10.6-0.6h4
		c4.9,0,8.4,0.5,10.3,1.5c1.5,0.7,2.5,2.1,3.1,4.1c0.2,0.8,0.4,2.6,0.4,5.2h-8.7C1692.1,533.4,1691.7,532.5,1691,532.1z"/>
	<path class="st2" d="M1721.1,545.1v8h-8.4v-8H1721.1z"/>
</g>
<path class="st2" d="M871.1,509c-6.7-7.3-5-21.9-5-21.9c-16.1,7.2-29.7,17.5-19.7,23.3c1.2,0.7,2.7,1.3,4.6,1.9l0,0
	c2.2,0.7,4.9,1.2,8.2,1.6c2.5,0.3,5.4,0.5,8.6,0.5c2.1,0,4.3-0.1,6.7-0.2c1.3-0.1,2.7-0.2,4.2-0.3c0.3,0,0.7-0.1,1-0.1
	c1.1-0.1,2.2-0.2,3.3-0.3c0.4,0,0.8-0.1,1.2-0.1c1.1-0.1,2.3-0.3,3.5-0.4c0.4,0,0.7-0.1,1.1-0.1c1.4-0.2,2.9-0.4,4.4-0.7
	c0.1,0,0.2,0,0.3,0c5.1-0.8,10.5-1.9,16-3.1c0,0,0,0,0.1,0c1.8-0.4,3.7-0.9,5.6-1.3c32.1-7.8,68.6-22,93.1-40.8
	c-60.6,0.6-98.6,5.4-113.7,13.3C881.5,496.3,871.1,509,871.1,509z M882.1,506.5c2.6-3.2,6-7.4,9.9-12.2c9-3.5,28.6-7.9,70.8-9.9
	C935.2,496.1,904.5,503.9,882.1,506.5z M1088.7,455c-2.7,0-5.3-0.7-7.6-2.3c12.2-10.2,27.8-18,33.8-18c0.5,0,0.9,0.1,1.3,0.2
	C1120.1,436.1,1102.8,455,1088.7,455z M1500.2,418.6c-2.3,0-4.5-0.6-6.5-2c10.4-8.7,23.7-15.3,28.8-15.3c0.4,0,0.8,0,1.1,0.1
	C1527,402.5,1512.2,418.6,1500.2,418.6z M1721.5,421.7c-0.3-2.3-2.1-7.6-11.7-7.6c-2.7,0-6.1,0.4-10.2,1.1c-0.6,0.1-1.3,0.2-2,0.3
	c2.1-1.8,3.4-4.2,3.9-6.8c6.2-1.7,10.1-7,9.5-12.8c-0.6-5.5-5.6-11-15.3-11c-2.2,0-4.7,0.3-7.3,0.9c-18.5,4.1-49.1,13.2-59.3,29.4
	c-0.3,0.3-0.7,0.5-1,0.8c-0.7,0.1-1.5,0.2-2.2,0.3c1.3-1.5,2.5-2.9,3.7-4.2c1.3-1.5,2.5-2.8,3.6-4.1c3.1-3.7,3.8-7.3,3.7-10
	c3-0.3,6-1.6,9.4-4.1c3.8-2.8,6.1-5.1,8.1-7c0.7-0.6,1.3-1.3,2-1.9c1.1-1,1.9-2.2,2.6-3.4c1.9-1.6,3.4-3.1,4.7-4.4
	c0.7-0.6,1.3-1.3,2-1.9c2.6-2.4,4.1-5.8,4-9.5c0-3.7-1.6-7.1-4.1-9.3c-2.9-2.5-6-3.8-9.5-3.8c-2.5,0-5,0.7-7.5,2
	c-3.3,1.8-9.9,6.5-13.6,10.9c-0.9,1-1.5,2-2.1,3c-2.6,2-5.3,4.4-7.3,6.7c-3,3.6-3.8,6.8-3.9,9.4c-4.9,0.5-10.3,3.6-16.1,9.5
	c-5.4,5.5-10.9,9.5-16.8,12.2c-2.8,1.3-4.4,4-4.3,7c-1.7,1-3.4,1.9-5.1,2.7c-2.7,1.2-4.3,3.9-4.3,6.8c-1.1,0.2-2.1,0.3-3.1,0.5
	c3.7-4.5,7.4-8.8,11.2-12.9c7.7-7.6,15.1-14.2,21.4-19.2c2.9-2.3,4.7-4.6,5.8-6.7c1.2-1,2.4-2,3.6-3c8.7-7,7.7-14.1,6.8-16.8
	c-1.7-5.3-6.9-9.3-12.7-9.7c-0.3,0-0.5,0-0.8,0c-5.8,0-10.5,3.7-16.3,8.4c-2.2,1.8-4.7,3.8-7.5,5.8c-6,4.3-12.3,4.8-14.8,4.8
	c-3.6,0-6.6,2.7-7,6.3c-0.1,1.1,0,2.2,0.4,3.2c-1.1,0.1-2.1,0.2-2.7,0.2c-3.6,0-6.6,2.7-7,6.3c-0.3,2.9,1.2,5.7,3.7,7
	c-4.9,4.7-9.3,9.6-12.8,13.9c-0.7,0.2-1.4,0.4-2.1,0.5c4.1-5.8,5.6-12.5,1.9-21.5c-1.8-4.4-6.1-9.7-16.1-9.7c-3.3,0-7.3,0.6-12,1.7
	c-16.7,4.1-35.1,16.5-49.3,32.9c-1.2,1.1-2.4,2.3-3.6,3.4c-1.1,0.2-2.3,0.4-3.4,0.7c4.3-10.4,2.7-17.1,0.3-23.4
	c-1.1-2.9-4.2-7.6-13.5-7.6c-9.4,0-23.2,4.9-35.1,12.4c-12.5,7.9-25.1,17.2-30.5,21.3c0.7-0.9,1.4-1.7,2.1-2.5
	c3.8-4.5,6.3-7.5,7.5-10.7c1.5-4.2,0.7-9-2-12.9c-3-4.2-7.6-6.6-12.9-6.6c-1.5,0-3,0.2-4.6,0.6c-1.1,0.3-3.7,1-19.6,13.3
	c-1.5-6.1-6.5-10.1-13-10.1c-1.5,0-2.9,0.2-4.3,0.6c-3.2,0.9-6.1,3.5-11,7.6c-0.7,0.6-1.4,1.2-2.2,1.8c-1.8-2.7-5.3-4.8-10.4-5
	c-1.3,0-2.8-0.1-4.4-0.1c-0.1,0-0.2,0-0.2,0c4.1-7.3,7.5-13.1,10.3-17.8c3.6-6.1,5.7-9.7,6.8-12.3c1.8-4.3,1.7-9.2-0.2-13.4
	c-1.8-4-5-6.9-9-8.2c-2-0.7-4-1-6.1-1h0c-5.2,0-10.6,2.1-18,7c-1.6,1-4.1,2.6-7.2,4.5c-13.7,8.5-38.9,24.3-69.7,46.6
	c-15.5,1-35.8,2.3-35.8,2.3l-6.5,0.4v6.5c0,0.9,0,1.7,0.1,2.6c-1.8,0.1-2.9,0.2-2.9,0.2l-6.5,0.4v6.5c0,8.4,1.9,13.8,6.5,17
	c-4.3,3.4-8.8,6.8-13.9,10.2c-0.1-0.1-0.2-0.2-0.3-0.3c-2.8-2.9-6.6-2.9-7.8-2.9c-2.1,0-4.5,0.4-7.4,0.8l-1.1,0.2
	c-0.9,0.1-2.2,0.4-3.8,0.9c3.9-5.3,6.1-11.5,5.3-19.5c-0.3-3.4-2.8-14.4-20-14.4c-6.6,0-12.6,1.6-14.9,2.2
	c-1.2,0.3-22.9,6.9-42.6,25.9c2.5-10.1,2.3-20.4-0.9-29.4c-4.3-12.1-15.8-27.9-46.5-34.4c-11.7-2.5-24.7-3.7-38.6-3.7
	c-41.7,0-85.2,11.5-104.3,19.1c-7.5,3-10.5,7.2-11.7,10.7c-10.9,5.4-10.3,13.5-9.8,15.9c1.3,6.6,7.7,11.4,15.2,11.4
	c1.9,0,3.7-0.3,5.5-0.9c2.6-0.9,11.8-3.6,20.2-3.6c3.9,0,7,0.6,8.8,1.8c1.2,0.7,2.5,1.1,3.8,1.1c0.6,0,1.1-0.1,1.7-0.2
	c-8.9,10.2-18.8,21.7-25.9,30c-24,5.2-41.1,10.3-49.2,23.5c-6,4.1-10.2,9.4-12.5,16.6c-6.5,20.5,7.1,33.4,19.7,40.6
	c7.8,4.5,18.2,6.7,31.9,6.7c14.6,0,33.2-2.6,55.2-7.8c47.3-11.2,79.3-27.1,106.2-53h0c-2.8,13.5,3.9,20.5,9.6,24.8
	c5.5,4.1,11.2,6.2,17,6.2c5.4,0,10.6-1.9,15.4-5.6c1.2-0.9,2.6-2.1,4.2-3.3c6.2-5,14.6-11.8,25-18c0.4,3.8,1.8,7.3,4.3,10.2
	c6.1,7.1,12.2,8.5,16.3,8.5c1.3,0,2.6-0.2,3.9-0.5c2.3-0.5,4.7-1.1,49-37.4c17.8-14.6,35.4-29.3,40.8-33.7l30.2-2.8
	c-5.6,11.7-13.5,29.1-14.7,36.8c-1.4,8.5,1.2,18,6.5,24.3c3.6,4.2,8.2,6.5,12.9,6.5c0.3,0,0.6,0,0.9,0c3.9-0.2,9.6-2.3,23.2-16
	c0.9-0.9,1.8-1.9,2.7-2.8c1.4,1.8,3.2,3.3,5.1,4.4c1.9,1.1,3.9,1.6,6,1.6c7.1,0,11.7-6.2,14-9.2c0.5-0.6,1.1-1.4,1.8-2.3
	c3.6-2.1,6.1-5.4,7.6-7.4c1-1.4,2.7-3.5,4.9-6.1c-2.9,8.2-0.8,15.6,5.4,18.8c3.1,1.6,6.7,3.2,10.5,3.2c2.9,0,5.5-0.9,7.5-2.7
	c1.3-1.2,2.3-2.7,4.1-5.5c0.4-0.6,0.8-1.3,1.3-2.1c1.5-0.4,2.8-1.2,4-2.2c0.9-0.8,1.7-1.8,2.7-3.3c1.3,5.2,4.4,9.6,9.3,12.8
	c3,2,6.3,3,9.8,3c0.4,0,0.8,0,1.2,0c-0.3,0.3-0.5,0.6-0.8,1c-0.3,0.3-0.5,0.5-0.8,0.8c-1.8,1.8-3.6,3.6-5.4,5.4
	c-11.3,11.3-12.2,22.9-9.5,29.4c2.1,5.2,6.8,8.4,12,8.4c3.7,0,9.3-1.5,15-8.8c0.8-1,1.7-2.2,2.7-3.4c2.1-1.3,4.4-3.3,6.7-6.3
	c10.1-12.9,34.2-42.8,46.4-57.5c2.5-1.7,5.1-2.9,7.6-3.8c0.3,9.8,3.9,15.8,11.8,20.8c3.5,2.3,7.7,3.5,12,3.5c6.9,0,14-3,20-8.5
	c5.6-5.2,16.7-13.3,27.1-18.9c-0.3,0.4-0.5,0.8-0.8,1.3c-2.8,4.3-5.2,8.1-6.7,11.1c-4.9,10.4-0.4,18.4,5,22c2.8,1.9,6.1,3,9.2,3
	c4.5,0,8.6-2.2,11.1-6.1c0.4-0.6,1.6-2.4,3.4-4.7c2.4-1,4.5-2.7,6-5c0.5-0.7,2-3,4.4-5.9c4.3-3.7,9.4-7.3,15.2-9.8
	c-2.2,5.9-3.2,12.2,0.1,16.7c0.2,0.3,0.4,0.6,0.6,0.9c2.1,2.9,5.6,7.8,11.7,7.8c3.9,0,7.5-2.1,10.8-6.2c0.4-0.5,0.8-1.1,1.3-1.7
	c0.8-1,1.6-2.1,2.6-3.2c1.9-1,3.8-2.6,5.5-4.8c0.4-0.5,0.8-1.1,1.3-1.7c1-1.3,2.1-2.7,3.4-4.3c2.8-2.4,5.9-4.8,9.5-6.9
	c-1.4,1.5-2.5,3.2-3.1,4.9c-1.6,1-3,2-4.1,2.8c-5.3,4.1-7.4,10-5.5,15.6c1.8,5.4,7.1,8.8,13.3,8.8c7.5,0,16.1-5.4,23.6-10.1
	c1.7-1.1,3.4-2.1,4.9-3c7.2-4.2,31.5-16.7,57.3-24.3c4.7-1.4,14.9-5.2,16-12.2C1717.2,431.4,1722.3,427.5,1721.5,421.7z M1640.5,370
	c2.2-2.6,5.8-5.5,8.8-7.5l0,0l0,0c0.5-0.4,1-0.7,1.5-1c0,0,0,0,0,0c0.5-0.3,0.9-0.6,1.3-0.8c1.6-0.9,2.9-1.2,4.1-1.2
	c2.2,0,3.8,1.1,4.9,2.1c1.7,1.5,2.7,5.8-0.1,8.5c-0.5,0.4-0.9,0.8-1.3,1.2l0,0c-2.3,2.2-4.3,4.3-8.3,7.3c-2.7,2-4.8,2.8-6.5,2.8
	c-1.3,0-2.4-0.4-3.5-1.2C1638.9,378.4,1636.2,375.1,1640.5,370z M1714.6,423c0,0.1-0.1,0.3-0.1,0.4c0,0,0,0,0,0.1
	c-0.1,0.1-0.1,0.3-0.2,0.4c0,0,0,0,0,0c-0.1,0.2-0.2,0.3-0.4,0.5c0,0,0,0-0.1,0.1c-0.3,0.3-0.7,0.7-1.1,1c0,0,0,0-0.1,0
	c-0.5,0.3-1,0.7-1.6,1c0,0,0,0,0,0c-2,1.2-4.6,2.3-7.6,3.2c-26.7,7.9-51.4,20.7-58.9,25c-7.5,4.3-18,12.1-25,12.1s-9.8-7.1-3.6-12
	c6.2-4.8,24.9-14.6,45.4-23.3c-2.5,0.1-4.6,0.2-6.7,0.2c-5.8,0-10.8-0.8-19.1-4.1c-26.6,5.9-39.6,24.5-45.7,32.2
	c-2.1,2.6-3.8,3.6-5.4,3.6c-2.9,0-5-3.6-6.7-5.9c-2.6-3.6,1.7-14.3,7.9-22.8c-27.2,1.2-45.7,27.8-48.3,31.8c-1.4,2.1-3.3,3-5.3,3
	c-1.8,0-3.7-0.7-5.3-1.8c-3.3-2.2-5.7-6.8-2.6-13.3c3.1-6.5,13-19.4,16.5-28.4c-15.5,2-39.3,19.7-47.1,26.9
	c-4.9,4.5-10.3,6.7-15.3,6.7c-3,0-5.8-0.8-8.2-2.4c-6.5-4.2-9.9-8.7-8.1-24.1c0,0-16,2-24.9,12.4c-8.9,10.3-39.5,48.1-51.4,63.5
	c-3.4,4.3-6.7,6.2-9.5,6.2c-7.4,0-10.5-13,2.4-25.9c14.3-14.3,27.7-26.4,42.7-49.6c-20.8,20-32.8,30.6-41.8,30.6
	c-2.2,0-4.2-0.6-6.1-1.8c-9.8-6.4-7.6-18.6-1.7-28.3c-16.8,7.3-25.5,26.9-28,29.1c-0.8,0.7-1.8,1-2.9,1c-2.3,0-5-1.2-7.4-2.4
	c-3.4-1.8-3.7-6.6-1.4-11.9c2.3-5.3,7.1-16,16.5-29.7c-16.2,6.8-40.2,36.2-43.5,40.5c-2.6,3.4-5.3,6.5-8.4,6.5
	c-0.8,0-1.7-0.2-2.6-0.7c-4.2-2.3-6.4-7.5-3.6-14c0,0-23,27.1-31.2,27.5c-0.2,0-0.3,0-0.5,0c-8,0-14.2-12.3-12.6-22.7
	c1.7-10.6,19.6-45.9,19.6-45.9l-44.7,4.1c0,0-83.6,69.9-88.6,71.1c-0.8,0.2-1.6,0.3-2.4,0.3c-4.1,0-7.8-2.5-11-6.1
	c-3.8-4.3-3.6-11.1,0.6-18.9c-20.4,9.4-35.8,23.1-43.6,29.2c-3.9,3-7.7,4.2-11.1,4.2c-5,0-9.5-2.4-12.8-4.9
	c-4.9-3.7-10.6-9.1-5.4-23.1c0,0-4.2-2.9-10.7-3.6c-27.9,27.9-61,43.2-105.5,53.7c-22.6,5.3-40.1,7.6-53.6,7.6
	c-13,0-22.1-2.1-28.4-5.7c-12.8-7.3-21.4-17.4-16.6-32.5c3.4-10.5,12.4-16.2,27.5-20.7c0.8-0.3,1.7-0.5,2.6-0.8
	c0.7-0.2,1.5-0.4,2.2-0.6c0.3-0.1,0.6-0.1,0.8-0.2c5.2-1.4,11.1-2.7,17.6-4.1c0,0,41.8-49.1,53.5-61.5c1.2-1.3,2.6-1.8,4.2-1.8
	c5.8,0,12.9,7.7,11.3,11.4c-0.1,0.2-0.2,0.4-0.3,0.5c-0.1,0.2-0.3,0.3-0.4,0.5c0,0.1-0.1,0.1-0.1,0.2c-0.1,0.2-0.3,0.3-0.4,0.5
	c-0.1,0.1-0.1,0.2-0.2,0.2c-0.2,0.2-0.4,0.4-0.5,0.6c-0.1,0.1-0.1,0.1-0.2,0.2c-6.5,7.7-25.2,28.6-41.3,44.5
	c3.6-0.6,7.4-1.2,11.5-1.8l0,0l0,0c3.8-0.5,7.7-0.9,11.9-1.3c0.1,0,0.2,0,0.3,0c4-0.4,8.3-0.7,12.7-1c0.2,0,0.5,0,0.7,0
	c2.1-0.1,4.3-0.2,6.5-0.3c0.3,0,0.6,0,0.9,0c2-0.1,4.1-0.2,6.2-0.2c0.3,0,0.5,0,0.8,0c2.2-0.1,4.5-0.1,6.7-0.1c0.5,0,1,0,1.5,0
	c2.3,0,4.7-0.1,7.1-0.1c2.6,0,5.3,0,8,0.1c0.4,0,0.8,0,1.2,0c2.7,0,5.4,0.1,8.2,0.2c0.2,0,0.5,0,0.7,0c8.4,0.3,17.1,0.7,26.1,1.3
	c15.3-9,29.3-39.6,11.3-52.9c-8.9-6.5-23.2-9.7-43.2-9.7c-20.7,0-47.4,3.4-80.1,10.2l4.3,7.6c0.1,0.1,0,0.3-0.2,0.3c0,0-0.1,0-0.1,0
	c-3.3-2.1-7.7-2.8-12.5-2.8c-7.8,0-16.5,2.1-22.4,4c-1.1,0.4-2.3,0.5-3.3,0.5c-8.2,0-13.8-9.6-0.5-14.9c5-2,12.8-4.6,22.5-7.3
	c0.3-0.1,0.5-0.1,0.8-0.2c1.1-0.3,2.2-0.6,3.4-0.9c0.2,0,0.3-0.1,0.5-0.1c1.3-0.3,2.6-0.7,4-1c0.3-0.1,0.6-0.1,0.8-0.2
	c1.1-0.3,2.3-0.6,3.5-0.8c0.3-0.1,0.6-0.1,0.9-0.2c1.4-0.3,2.9-0.6,4.3-1c0.2,0,0.5-0.1,0.7-0.1c1.3-0.3,2.5-0.5,3.8-0.8
	c0.4-0.1,0.7-0.1,1.1-0.2c1.5-0.3,3.1-0.6,4.6-0.9c0.1,0,0.1,0,0.2,0c1.5-0.3,3-0.5,4.5-0.8c0.4-0.1,0.8-0.1,1.2-0.2
	c1.4-0.2,2.9-0.5,4.3-0.7c0.2,0,0.4-0.1,0.6-0.1c1.6-0.2,3.2-0.5,4.9-0.7c0.4-0.1,0.8-0.1,1.3-0.2c1.4-0.2,2.7-0.3,4.1-0.5
	c0.4,0,0.7-0.1,1.1-0.1c1.7-0.2,3.3-0.4,5-0.5c0.4,0,0.8-0.1,1.1-0.1c1.4-0.1,2.8-0.2,4.1-0.3c0.4,0,0.9-0.1,1.3-0.1
	c1.7-0.1,3.4-0.2,5.1-0.3c0.3,0,0.5,0,0.8,0c1.5-0.1,3-0.1,4.4-0.2c0.5,0,0.9,0,1.4,0c1.7,0,3.5-0.1,5.2-0.1c12.5,0,25.1,1,37.1,3.6
	c1.5,0.3,3,0.7,4.4,1c0.4,0.1,0.9,0.2,1.3,0.4c1,0.3,2,0.6,2.9,0.9c0.4,0.1,0.9,0.3,1.3,0.4c1,0.3,1.9,0.7,2.9,1
	c0.3,0.1,0.6,0.2,1,0.4c1.2,0.5,2.4,1,3.5,1.5c0.2,0.1,0.5,0.2,0.7,0.3c0.9,0.4,1.7,0.8,2.6,1.3c0.3,0.2,0.7,0.4,1,0.6
	c0.7,0.4,1.4,0.8,2.1,1.2c0.3,0.2,0.6,0.4,0.9,0.6c0.8,0.5,1.6,1.1,2.4,1.6c0.1,0.1,0.2,0.2,0.3,0.2c0.9,0.6,1.7,1.3,2.5,2
	c0.2,0.2,0.4,0.4,0.7,0.6c0.6,0.5,1.1,1,1.6,1.5c0.2,0.2,0.5,0.5,0.7,0.7c0.5,0.5,1,1,1.4,1.6c0.2,0.2,0.4,0.4,0.6,0.6
	c0.6,0.7,1.2,1.5,1.7,2.2c0.1,0.1,0.2,0.3,0.3,0.4c0.4,0.6,0.9,1.3,1.3,1.9c0.2,0.3,0.3,0.5,0.5,0.8c0.3,0.5,0.6,1.1,0.9,1.6
	c0.1,0.3,0.3,0.6,0.4,0.8c0.3,0.6,0.6,1.3,0.8,1.9c0.1,0.2,0.2,0.4,0.2,0.6c0.3,0.8,0.6,1.6,0.9,2.5c0.1,0.2,0.1,0.5,0.2,0.8
	c0.2,0.6,0.3,1.2,0.5,1.8c0.1,0.3,0.1,0.6,0.2,0.9c0.1,0.6,0.2,1.2,0.3,1.7c0,0.3,0.1,0.6,0.1,0.9c0.1,0.8,0.2,1.6,0.3,2.4
	c0,0.1,0,0.3,0,0.4c0.1,0.8,0.1,1.5,0.1,2.3c0,0.3,0,0.6,0,0.9c0,0.6,0,1.1,0,1.7c0,0.3,0,0.7,0,1c0,0.6-0.1,1.2-0.1,1.8
	c0,0.3,0,0.6-0.1,0.8c-0.1,0.8-0.2,1.7-0.4,2.5c0,0.3-0.1,0.5-0.2,0.8c-0.1,0.6-0.2,1.2-0.4,1.8c-0.1,0.3-0.2,0.7-0.2,1
	c-0.1,0.5-0.3,1.1-0.4,1.6c-0.1,0.3-0.2,0.7-0.3,1c-0.2,0.6-0.4,1.3-0.6,1.9c-0.1,0.2-0.1,0.4-0.2,0.6l0,0v0
	c-2.3,6.4-5.7,12.5-9.8,17.6c0,0,4.5,1.7,8.4,1.9c17.3-27,44.3-38.6,53.2-41.4c0,0,0.1,0,0.1,0c0.3-0.1,0.6-0.2,0.9-0.3
	c3.3-1,8.2-1.9,13-1.9c6.5,0,12.5,1.8,13.1,8.1c0.1,0.9,0.1,1.7,0.1,2.5c0,0.2,0,0.4,0,0.5c0,0.7-0.1,1.5-0.2,2.2
	c0,0.2-0.1,0.4-0.1,0.6c-0.1,0.5-0.2,1.1-0.3,1.6c-0.1,0.3-0.1,0.6-0.2,0.8c-0.1,0.5-0.3,1-0.5,1.4c-0.1,0.3-0.2,0.6-0.4,0.9
	c-0.2,0.5-0.5,1-0.7,1.5l0,0c-4.3,7.9-13.7,13.4-23.9,19.9c-5.8,3.7-10.7,5.1-14.8,5.1c-6.4,0-11.2-3.3-15.5-6.6c0,0-4.8,6-7.6,8.8
	c-3.8,3.8-5.1,10-2.4,12.4l0,0c0.1,0.1,0.2,0.2,0.3,0.2c0.7,0.5,1.5,0.8,2.6,0.8c2,0,4.6-0.9,8.1-3.1c10.8-6.9,37.4-17.1,52.3-22h0
	c0,0,0,0,0,0c0.6-0.2,1.1-0.4,1.7-0.5c0,0,0,0,0,0c0.5-0.2,1-0.3,1.5-0.5c0,0,0,0,0.1,0c0.5-0.1,0.9-0.3,1.4-0.4
	c0.1,0,0.1,0,0.2-0.1c0.4-0.1,0.8-0.2,1.1-0.3c0.1,0,0.2-0.1,0.3-0.1c0.3-0.1,0.6-0.2,0.9-0.2c0.1,0,0.2-0.1,0.4-0.1
	c0.2-0.1,0.5-0.1,0.7-0.2c0.2,0,0.3-0.1,0.5-0.1c0.1,0,0.3-0.1,0.4-0.1c0.3-0.1,0.5-0.1,0.7-0.1c3-0.4,5.6-0.8,7.5-0.8
	c2.1,0,3.3,0.5,3.2,2.2c-0.1,1.5-0.9,2-2.4,2.3l0,0l0,0c-0.5,0.1-1.1,0.2-1.7,0.3c-0.4,0.1-0.9,0.1-1.3,0.2l0,0
	c-1.1,0.2-2.5,0.5-3.9,1c-4.8,1.6-10.6,9.5-7.2,9.5c0.7,0,1.6-0.3,3-0.9c27.6-13.1,41.8-28,58.4-40.9c-14.5-0.8-16.3-4.2-16.3-14.3
	c0,0,0.2,0,0.5,0c0.1,0,0.2,0,0.4,0c0.2,0,0.3,0,0.5,0c4-0.3,16.3-1,27.9-1.8h0c2.9-0.2,5.8-0.4,8.6-0.5
	c38.8-28.3,69.7-46.6,78.3-52.2c1.9-1.2,3.6-2.2,5.2-3.1l0,0l0,0c1.3-0.7,2.5-1.2,3.6-1.6c0.1-0.1,0.3-0.1,0.4-0.1
	c0.3-0.1,0.6-0.2,0.9-0.3c0.4-0.1,0.8-0.2,1.1-0.3c0.2,0,0.3-0.1,0.5-0.1c0.3-0.1,0.6-0.1,0.9-0.1c0.1,0,0.3,0,0.4-0.1
	c0.4,0,0.8-0.1,1.2-0.1c1.3,0,2.6,0.2,3.9,0.6c4.8,1.6,7,7.6,5,12.3c-0.1,0.3-0.3,0.6-0.4,0.9c-0.1,0.1-0.1,0.2-0.2,0.4
	c-0.1,0.2-0.2,0.4-0.3,0.7c-0.1,0.2-0.2,0.3-0.3,0.5c-0.1,0.2-0.3,0.5-0.4,0.7c-0.1,0.2-0.2,0.4-0.3,0.5l0,0l0,0
	c-3.5,6.3-10.8,18-20.6,36.4c0,0,1.6-0.1,4-0.1l0,0c0,0,0,0,0,0c0.6,0,1.2,0,1.8,0c0,0,0,0,0,0c0.6,0,1.3,0,2,0c0,0,0,0,0.1,0
	c0.7,0,1.4,0,2.1,0c0,0,0,0,0,0c0.7,0,1.4,0,2.2,0c1.5,0,2.9,0,4.2,0.1c6.6,0.2,6.6,5,2.4,6c-0.3,0.1-0.7,0.2-1,0.2c0,0-0.1,0-0.1,0
	c-0.3,0.1-0.7,0.1-1.1,0.2l0,0l0,0c-4.1,0.7-10,1.3-21.5,1.9c0,0-18.2,38.1-20.6,43.4c-2.2,4.8-2,8.2,1,8.2c0.4,0,0.8-0.1,1.3-0.2
	c4.2-1,17.3-12.8,22.2-18.4c2.7-3.1,4.6-4.1,6.1-4.1c1.2,0,2,0.7,2.8,1.5l14-21.9l-8.5,0.4c0,0,0,0,0,0c-0.3,0-0.4-0.4-0.1-0.6
	c11-6.3,19.5-14.5,24.8-18.8l0,0c0,0,0,0,0.1-0.1c0.4-0.3,0.8-0.6,1.2-0.9c0,0,0,0,0.1,0c0.4-0.3,0.7-0.5,1.1-0.7
	c0.1-0.1,0.2-0.1,0.2-0.1c0.3-0.2,0.5-0.3,0.7-0.4c0.3-0.2,0.6-0.3,0.8-0.3c0.8-0.2,1.6-0.4,2.4-0.4c3.3,0,6.2,2.2,6.5,6.6
	c0,0.4,0,0.8-0.1,1.2c0,0.1,0,0.2-0.1,0.3c-0.1,0.3-0.1,0.6-0.3,1c0,0.1-0.1,0.2-0.1,0.3c-0.1,0.4-0.3,0.7-0.5,1.1
	c0,0.1-0.1,0.2-0.1,0.2c-0.2,0.5-0.5,0.9-0.8,1.4l0,0l0,0c-3,5-9.4,11.5-16.9,20.5c0,0,30.4-25.3,42.3-33.5l0,0l0,0
	c0.5-0.3,0.9-0.6,1.4-0.9c0.1,0,0.1-0.1,0.2-0.1c0.3-0.2,0.7-0.4,1-0.6c0.1,0,0.2-0.1,0.2-0.1c0.3-0.2,0.5-0.3,0.7-0.4
	c0.1,0,0.1-0.1,0.2-0.1c0.3-0.1,0.5-0.2,0.6-0.3c1-0.3,1.9-0.4,2.8-0.4c6.3,0,9.8,5.9,8.3,10.2c-0.1,0.3-0.2,0.6-0.4,0.9
	c-0.1,0.2-0.2,0.4-0.4,0.6c-0.1,0.1-0.1,0.2-0.2,0.3c-0.2,0.3-0.4,0.6-0.6,0.9c0,0,0,0.1-0.1,0.1c-0.3,0.4-0.5,0.7-0.9,1.1l0,0l0,0
	c-4,5.2-11.9,13.2-19.5,26.1c0,0,8.1-5.3,20.5-7c0,0,16.6-12.7,32.8-23c5.3-3.4,11.1-6.2,16.4-8.1h0l0,0c2.1-0.8,4.2-1.4,6.2-1.9
	c0,0,0,0,0,0c0.6-0.2,1.2-0.3,1.8-0.4c0,0,0.1,0,0.1,0c0.6-0.1,1.1-0.2,1.6-0.3c0.1,0,0.1,0,0.2,0c0.5-0.1,1-0.2,1.4-0.2
	c0.1,0,0.2,0,0.3,0c0.4-0.1,0.9-0.1,1.3-0.1c0.1,0,0.2,0,0.4,0c0.5,0,1-0.1,1.5-0.1c3.7,0,6.2,1,7,3.1c0.1,0.3,0.2,0.5,0.3,0.8
	c0,0.1,0,0.1,0.1,0.2c0.1,0.2,0.2,0.5,0.2,0.7c0,0,0,0.1,0,0.1c0.1,0.3,0.2,0.6,0.3,0.9c0,0,0,0,0,0.1c0.1,0.3,0.2,0.5,0.2,0.8
	c0,0,0,0.1,0,0.1c0.2,0.6,0.3,1.2,0.4,1.9c0,0,0,0.1,0,0.1c0.1,0.3,0.1,0.7,0.1,1c0,0,0,0,0,0c0.1,0.7,0.1,1.5,0.1,2.2c0,0,0,0,0,0
	c0,2-0.4,4.2-1.2,6.7c0,0,0,0,0,0c-0.3,1-0.7,2.1-1.2,3.2l0,0l0,0c-1.7,4-4.5,8.8-8.8,14.7c0,0,3.6-1.8,8.9-3.6l0,0
	c0.5-0.2,1-0.4,1.6-0.5c3.8-1.2,8.3-2.4,13-3c11.9-15.5,29.6-29.7,46.7-35c1-0.3,2.1-0.6,3.1-0.9c4.1-1,7.6-1.5,10.3-1.5
	c5.2,0,8.2,1.8,9.7,5.4c0.3,0.7,0.6,1.5,0.8,2.2c0.1,0.4,0.2,0.8,0.3,1.2c0.1,0.3,0.1,0.5,0.2,0.8c0.1,0.5,0.2,1,0.2,1.6
	c0,0.1,0,0.2,0,0.4c0,0.6,0,1.1,0,1.6c0,0.1,0,0.1,0,0.2c0,0.6-0.1,1.1-0.2,1.7c0,0,0,0,0,0.1c-1.4,6.3-8,11.3-18.4,18.6
	c-7.1,4.9-12.8,6.6-18.1,6.6c-5.1,0-9.7-1.5-14.6-3c0,0-4.2,4.2-8.1,9.2c-2.8,3.5-4.6,9.5,0.6,9.5c2.1,0,5.5-1,10.5-3.6
	c17.1-9,33.1-16.5,60-23.1c0,0,13.8-20.2,30.6-32.6l-10.6-2.4h0l-0.9-0.2c-0.2,0-0.2-0.3,0-0.3c0.3,0,0.6,0,0.9,0c0,0,0.1,0,0.1,0
	c0.3,0,0.7,0,1.1-0.1c3.9-0.3,10.4-1.5,16.7-6c5.5-4,9.6-7.6,13-10c0.3-0.2,0.6-0.4,0.9-0.6c0.1-0.1,0.2-0.1,0.3-0.2
	c0.2-0.1,0.4-0.3,0.7-0.4c0.1-0.1,0.3-0.1,0.4-0.2c0.2-0.1,0.4-0.2,0.6-0.3c0.1-0.1,0.3-0.1,0.4-0.2c0.2-0.1,0.4-0.2,0.6-0.3
	c0.1-0.1,0.3-0.1,0.4-0.2c0.2-0.1,0.4-0.1,0.6-0.2c0.1,0,0.2-0.1,0.3-0.1c0.2-0.1,0.4-0.1,0.6-0.1c0.1,0,0.2,0,0.3-0.1
	c0.3,0,0.6-0.1,0.9-0.1c0.1,0,0.2,0,0.4,0c0.3,0,0.5,0.1,0.8,0.1c0,0,0,0,0.1,0c0.3,0.1,0.5,0.1,0.8,0.2c0,0,0.1,0,0.1,0
	c0.3,0.1,0.5,0.2,0.8,0.3c0,0,0.1,0,0.1,0c0.3,0.1,0.5,0.3,0.7,0.4c0,0,0.1,0,0.1,0.1c0.2,0.2,0.5,0.3,0.7,0.5c0,0,0,0,0,0
	c2.8,2.2,4,6.2-0.5,10.8l0,0l0,0c-0.5,0.5-1.1,1.1-1.8,1.6c-17.5,14-40.5,37.1-57,61.5c3.9-2.1,9.8-4.8,17.4-6.7c0,0,0,0,0,0
	c5.1-1.3,11-2.1,17.8-2.1c0.7,0,1.4,0,2.1,0c0,0,4-7.3,9.5-14l-7.7-1.5c-0.4-0.1-0.4-0.6-0.1-0.7c6.9-3.1,13-7.6,18.9-13.6
	c2-2,3.9-3.6,5.6-4.8c0.3-0.2,0.7-0.4,1-0.6c0.2-0.1,0.3-0.2,0.5-0.3c0.4-0.2,0.8-0.5,1.2-0.6c0.1-0.1,0.3-0.1,0.4-0.2
	c0.3-0.2,0.7-0.3,1-0.4c0.1,0,0.2-0.1,0.3-0.1c0.4-0.1,0.8-0.2,1.1-0.3c0.1,0,0.2,0,0.3,0c0.4-0.1,0.7-0.1,1.1-0.1
	c0.3,0,0.6,0,0.9,0.1l0,0c0.4,0.1,0.8,0.2,1.1,0.4c1.7,0.9,4,2.7,4.6,5.3c0,0,0,0,0,0.1c0.1,0.2,0.1,0.5,0.1,0.7c0,0,0,0.1,0,0.1
	c0,0.2,0,0.4,0,0.7c0,0.1,0,0.2,0,0.2c0,0.2,0,0.4-0.1,0.6c0,0.1-0.1,0.2-0.1,0.3c0,0.2-0.1,0.4-0.2,0.6c-0.1,0.1-0.1,0.3-0.2,0.4
	c-0.1,0.2-0.1,0.3-0.2,0.5c-0.1,0.2-0.2,0.4-0.3,0.6c-0.1,0.1-0.1,0.3-0.2,0.4c-0.2,0.3-0.5,0.7-0.8,1c-0.3,0.3-0.6,0.7-0.9,1l0,0
	c-4.8,5.6-12.1,13.3-20.6,26.2c2.6-1.7,6.1-3.5,10.5-5l0,0l0,0c4.6-1.6,10.1-2.8,16.4-3.1c5-15.5,36.5-25.2,53.6-29.3
	c0.1,0,0.1,0,0.2,0c0.5-0.1,1-0.2,1.4-0.3c0.5-0.1,1-0.2,1.5-0.3c2.2-0.5,4.1-0.7,5.7-0.7c0.6,0,1.2,0,1.8,0.1
	c0.2,0,0.3,0.1,0.5,0.1c0.4,0.1,0.7,0.1,1,0.2c0.2,0,0.4,0.1,0.5,0.2c0.3,0.1,0.6,0.2,0.8,0.3c0.2,0.1,0.3,0.1,0.5,0.2
	c0.2,0.1,0.4,0.2,0.6,0.3c0.1,0.1,0.3,0.2,0.4,0.3c0.2,0.1,0.3,0.2,0.5,0.4c0.1,0.1,0.2,0.2,0.3,0.3c0.1,0.1,0.3,0.3,0.4,0.4
	c0.1,0.1,0.2,0.2,0.3,0.4c0.1,0.1,0.2,0.3,0.2,0.4c0.1,0.1,0.1,0.3,0.2,0.4c0.1,0.1,0.1,0.3,0.1,0.4c0,0.1,0.1,0.3,0.1,0.4
	c0,0.1,0,0.3,0,0.4c0,0.2,0,0.3,0,0.5c0,0.1,0,0.2-0.1,0.4c0,0.2-0.1,0.3-0.1,0.5c0,0.1-0.1,0.2-0.1,0.3c-0.1,0.2-0.1,0.3-0.2,0.5
	c-0.1,0.1-0.1,0.2-0.2,0.3c-0.1,0.2-0.2,0.3-0.4,0.5c-0.1,0.1-0.1,0.1-0.2,0.2c-0.2,0.2-0.3,0.3-0.5,0.5c-0.1,0.1-0.1,0.1-0.2,0.2
	c-0.2,0.2-0.4,0.3-0.7,0.4c-0.1,0-0.1,0.1-0.2,0.1c-0.3,0.1-0.5,0.3-0.9,0.4l0,0l0,0c-0.4,0.1-0.7,0.3-1.1,0.3
	c-7.9,1.8-8.8,1.3-20.2,10.5c-0.1,0.1-0.2,0.1-0.4,0.1c-0.2,0-0.5-0.1-0.6-0.4l-0.9-5.4c-9.3,3-24.4,9.9-22.4,14.2
	c1.1,2.3,8,3.4,17.3,3.4c1.9,0,3.9-0.1,6-0.1h0c1.7-0.1,3.5-0.2,5.2-0.3c0.2,0,0.3,0,0.5,0c1.7-0.1,3.5-0.3,5.3-0.5c0,0,0.1,0,0.1,0
	c1.7-0.2,3.5-0.4,5.2-0.7c0.4-0.1,0.7-0.1,1.1-0.2c1.7-0.3,3.5-0.5,5.2-0.8c3.9-0.7,6.8-1,9-1c0.4,0,0.8,0,1.1,0c0.1,0,0.2,0,0.3,0
	c0.3,0,0.6,0.1,0.9,0.1c0,0,0,0,0,0c0.3,0,0.5,0.1,0.8,0.2c0.1,0,0.1,0,0.2,0c0.2,0.1,0.4,0.1,0.6,0.2c0,0,0,0,0,0
	c0.2,0.1,0.3,0.2,0.4,0.3c0,0,0.1,0,0.1,0.1c0.1,0.1,0.2,0.2,0.3,0.3c0,0,0,0,0,0c0.1,0.1,0.1,0.2,0.2,0.3c0,0,0,0.1,0,0.1
	C1714.6,422.7,1714.6,422.8,1714.6,423C1714.6,423,1714.6,423,1714.6,423z M908.6,420.4c0.2,0,0.4-0.1,0.7-0.1
	c0.7,0.2,1.4,0.3,2.1,0.3c0.2,0,0.5,0,0.7,0c-1,1.1-1.9,2.2-3,3.4C909.2,422.8,909,421.6,908.6,420.4z M957,419.1c1.4-1.7,2-3.8,2-6
	c6.8-0.6,13.1-0.8,18.9-0.8c18.4,0,31.6,2.8,39.1,8.4c4,3,5.9,7.5,5.6,13.4c-0.3,5.9-2.7,12-5.9,17.1c-14.2-1-28.2-1.5-41.6-1.5
	c-17.1,0-33.2,0.8-47.6,2.3C941.4,437.2,954.3,422.5,957,419.1z M1290,433.5c0.4,1.4,1.2,2.7,2.2,3.6c-2.2,1.3-4.1,3.2-5.4,4.8
	c-2.1,2.4-5.3,5.5-8.5,8.3c2.9-6.2,6.7-14.1,9.9-20.7c0.7,0,1.3-0.1,1.9-0.1C1289.7,430.6,1289.6,432.1,1290,433.5z M1297.8,365.4
	c-11.4,6.4-28.1,16.5-63.6,43.1c0,0,6.8,0.1,15.3,0.1l0,0c1,0,2,0,3,0c0.2,0,0.3,0,0.5,0c1,0,2,0,3.1,0c1.4,0,2.8,0,4.1,0
	c4.4,0,8.7-0.1,12.4-0.2C1277.9,397.3,1286.2,383.4,1297.8,365.4z M1264.1,401.8c-1.5,0-3,0-4.6,0c2.7-1.9,5.2-3.6,7.6-5.2
	C1265.9,398.4,1265,400.1,1264.1,401.8z M1435.3,416c-9,9.3-21.4,19.5-42.6,30.1c-3,1.5-5.7,2.7-6.8,2.7c-1.1,0-0.7-1.2,2.2-4.5
	c16.6-18.7,27.5-23.2,45.6-31.2c0.6-0.3,1.2-0.4,1.7-0.4C1436.8,412.8,1437.3,413.9,1435.3,416z"/>
<rect x="705.8" y="25.8" class="st2" width="7.3" height="557.3"/>
<g>
	<path class="st2" d="M1071,95.1c-5-1.3-14.6-3.6-14.6-14.6c0-8.5,6.5-15,18-15c12.4,0,20.2,7.5,20.2,17.3c0,0.7-0.1,1.5-0.1,2.2
		l-7.8-0.4c0-1.9,0-3.9-0.6-5.7c-1.8-5.3-7-7.3-11.7-7.3c-6.5,0-10.7,3.6-10.7,8.2c0,5.6,5.9,6.9,12,8.3l5.2,1.2
		c5.5,1.4,15.5,3.9,15.5,14.9c0,10.7-9.2,17-20.7,17c-8.6,0-21.7-3.8-21.7-18.1c0-0.7,0-1.3,0.1-2.5l7.5,0.5
		c0.1,2.9,0.1,7.4,4.6,10.6c2.3,1.7,5.7,2.8,9.8,2.8c5,0,12.5-1.9,12.5-9.1c0-6.5-6.8-8-12.1-9.2L1071,95.1z"/>
	<path class="st2" d="M1129,119.6h-8.2l0.1-45.7h-17V67c7,0,14,0.1,21,0.1c6.9,0,13.9-0.1,20.8-0.1v6.9h-17L1129,119.6z"/>
	<path class="st2" d="M1201.8,99.8c-0.7,3.1-1.7,7.1-3.9,10.8c-6,9.8-15.9,10.6-20.8,10.6c-17,0-26.7-12-26.7-27.3
		c0-14.7,9.1-28.4,26.4-28.4c3.1,0,7.1,0.4,11.1,2.2c10.3,4.6,12.8,14.3,13.8,17.9l-7.5,1c-0.6-2.2-1.5-5.2-3.5-8
		c-2.4-3.2-6.8-6.6-13.5-6.6c-9.7,0-18.2,7.3-18.2,21.4c0,13.8,8.6,21,18.8,21c12.6,0,15.3-10.6,16.7-16.4L1201.8,99.8z"/>
	<path class="st2" d="M1283.5,99.8c-0.7,3.1-1.7,7.1-3.9,10.8c-6,9.8-15.9,10.6-20.8,10.6c-17,0-26.7-12-26.7-27.3
		c0-14.7,9.1-28.4,26.4-28.4c3.1,0,7.1,0.4,11.1,2.2c10.3,4.6,12.8,14.3,13.8,17.9l-7.5,1c-0.6-2.2-1.5-5.2-3.5-8
		c-2.4-3.2-6.8-6.6-13.5-6.6c-9.7,0-18.2,7.3-18.2,21.4c0,13.8,8.6,21,18.8,21c12.6,0,15.3-10.6,16.7-16.4L1283.5,99.8z"/>
	<path class="st2" d="M1335.4,112.5c-6.8,8.4-16.1,8.7-19.8,8.7c-3.4,0-7.4-0.5-11.5-2.2c-13.3-5.4-14.7-19.8-14.8-25.4
		c0-13.9,7.7-28.1,26.1-28.1c17.5,0,26,13.2,26,27.9C1341.5,100.7,1339.4,107.6,1335.4,112.5z M1328.5,78.7
		c-3.6-4.6-8.6-5.9-13.2-5.9c-2.5,0-5,0.4-7.2,1.3c-2.3,1-4.3,2.6-5.9,4.5c-3.3,4-4.2,9.3-4.2,14.4c0,4.8,0.8,9.7,3.5,13.6
		c4.5,6.8,11.2,7.1,14.4,7.1c11.8,0,17-8.4,17-20.5C1332.8,90.5,1332.6,83.8,1328.5,78.7z"/>
	<path class="st2" d="M1393.3,119.6h-9.5l-25.5-40.9v40.9h-7.4l0.1-52.5h8.5l26.5,42l-0.3-42h7.4L1393.3,119.6z"/>
	<path class="st2" d="M1423.4,119.6h-8.2l0.1-45.7h-17V67c7,0,14,0.1,21,0.1c6.9,0,13.9-0.1,20.8-0.1v6.9h-17L1423.4,119.6z"/>
	<path class="st2" d="M1489.1,119.6h-9.3l-13.5-22.3l-12.9-0.4v22.7h-7.9V67.1h25.2c3.2,0.1,6.9,0.3,10.2,2c3.7,2,7.1,6.2,7.1,13
		c0,7-3.7,10.7-6.1,12.4c-2.6,1.8-5.2,2.2-7.2,2.5L1489.1,119.6z M1453.4,90.5l11.6,0.1c5-0.1,6.6-0.1,8.6-0.7
		c4.2-1.3,6.3-4.4,6.3-8c0-6.5-5.7-7.7-7.4-8c-1.6-0.3-2.2-0.3-8.4-0.4h-10.7V90.5z"/>
	<path class="st2" d="M1537.9,119.6h-8.6l-5.7-16.3h-18.1l-5.7,16.3h-8.6l19.3-52.5h7.9L1537.9,119.6z M1521.4,96.6l-6.8-19.7
		l-6.6,19.7H1521.4z"/>
	<path class="st2" d="M1592.1,99.8c-0.7,3.1-1.7,7.1-3.9,10.8c-6,9.8-15.9,10.6-20.8,10.6c-17,0-26.7-12-26.7-27.3
		c0-14.7,9.1-28.4,26.4-28.4c3.1,0,7.1,0.4,11.1,2.2c10.3,4.6,12.8,14.3,13.8,17.9l-7.5,1c-0.6-2.2-1.5-5.2-3.5-8
		c-2.4-3.2-6.8-6.6-13.5-6.6c-9.7,0-18.2,7.3-18.2,21.4c0,13.8,8.6,21,18.8,21c12.6,0,15.3-10.6,16.7-16.4L1592.1,99.8z"/>
	<path class="st2" d="M1617.3,119.6h-8.2l0.1-45.7h-17V67c7,0,14,0.1,21,0.1c6.9,0,13.9-0.1,20.8-0.1v6.9h-17L1617.3,119.6z"/>
	<path class="st2" d="M1647.5,119.6h-8.2V67.1h8.2V119.6z"/>
	<path class="st2" d="M1703.4,119.6h-9.5l-25.5-40.9v40.9h-7.4l0.2-52.5h8.5l26.5,42l-0.3-42h7.4L1703.4,119.6z"/>
	<path class="st2" d="M1763.1,93.5v26.1h-7.2v-5.5c-2.2,2.2-7,7.1-17.8,7.1c-17.6,0-25.4-13.6-25.4-26.9c0-15.6,10.2-28.7,27-28.7
		c7.1,0,14.1,2.7,18.8,8.1c3.8,4.5,4.6,8.5,5.1,11.2h-8.4c-0.4-1.6-1.2-4.1-3.1-6.5c-2.5-3.1-6.7-5.7-12.7-5.7
		c-10.2,0-18.2,7.8-18.2,21.4c0,13.2,7.7,20.5,17.3,20.5c5.5,0,10.6-2.4,13.7-6.1c2.8-3.2,3.2-6.2,3.6-8.3h-19.6v-6.6H1763.1z"/>
</g>
<g>
	<path class="st2" d="M1093.2,161.3v21h-5.6v-4.4c-1.7,1.7-5.4,5.7-13.8,5.7c-13.7,0-19.7-10.9-19.7-21.6c0-12.5,7.9-23,21-23
		c5.6,0,10.9,2.1,14.6,6.5c3,3.6,3.6,6.8,4,9h-6.5c-0.3-1.3-0.9-3.3-2.4-5.3c-2-2.5-5.2-4.6-9.8-4.6c-7.9,0-14.1,6.3-14.1,17.2
		c0,10.6,6,16.5,13.5,16.5c4.3,0,8.2-1.9,10.7-4.9c2.1-2.6,2.5-5,2.8-6.6h-15.3v-5.3H1093.2z"/>
	<path class="st2" d="M1142.7,182.3h-7.2l-10.5-17.9l-10-0.3v18.2h-6.1v-42.2h19.6c2.5,0.1,5.4,0.2,7.9,1.6c2.9,1.6,5.6,5,5.6,10.4
		c0,5.6-2.9,8.6-4.7,9.9c-2,1.4-4.1,1.7-5.6,2L1142.7,182.3z M1114.9,158.8l9,0.1c3.9-0.1,5.2-0.1,6.7-0.6c3.2-1,4.9-3.5,4.9-6.4
		c0-5.3-4.5-6.2-5.7-6.4c-1.3-0.2-1.7-0.2-6.5-0.4h-8.3V158.8z"/>
	<path class="st2" d="M1189.2,176.5c-5.3,6.7-12.6,7-15.4,7c-2.7,0-5.8-0.4-8.9-1.7c-10.4-4.4-11.5-15.9-11.5-20.4
		c0-11.2,6-22.6,20.3-22.6c13.6,0,20.2,10.6,20.2,22.4C1193.9,167,1192.3,172.6,1189.2,176.5z M1183.8,149.4
		c-2.8-3.7-6.7-4.7-10.2-4.7c-2,0-3.9,0.3-5.6,1.1c-1.8,0.8-3.4,2.1-4.6,3.6c-2.5,3.2-3.3,7.5-3.3,11.6c0,3.9,0.6,7.8,2.7,10.9
		c3.5,5.4,8.7,5.7,11.2,5.7c9.1,0,13.2-6.7,13.2-16.4C1187.2,158.8,1187,153.5,1183.8,149.4z"/>
	<path class="st2" d="M1240.2,140.1v21.1c0,5-0.1,9.2-1,12.5c-2.7,9.3-11.4,9.7-15.6,9.7c-6.9,0-12.6-2.5-14.8-8.8
		c-1-3-1-6.4-1.2-14.9v-19.7h5.8v19.8v2.6c0.1,7,0.5,8.5,0.9,9.7c2,5.8,7.2,5.8,9.8,5.8c2,0,4.1-0.2,5.8-1.3c3.8-2.3,3.9-6.8,4.1-9
		c0.1-2.2,0.1-3.6,0.1-7.2v-20.4H1240.2z"/>
	<path class="st2" d="M1262.3,182.3h-6.3V140h20.8c2.1,0.1,5,0.1,7.6,1.6c3.8,2.1,5.6,5.9,5.6,10.4c0,1.5-0.2,3.5-1.1,5.6
		c-2.7,6-8.1,6.7-13.4,6.7c-1,0-3.1,0-4.6-0.1h-8.6V182.3z M1262.3,159h11.4c3,0,4.4-0.1,5.8-0.6c2.7-1,4.1-3.3,4.1-6.3
		c0-3.9-2.3-5.6-3.8-6.1c-1.4-0.5-2.9-0.7-6.1-0.8h-11.3V159z"/>
</g>
<g>
	<path class="st2" d="M1065.3,233.6c-5.3,0-9.4-4.9-9.4-12.9c0-8.1,4.1-12.9,9.4-12.9c5.3,0,9.4,4.9,9.4,12.9
		C1074.7,228.8,1070.6,233.6,1065.3,233.6z M1065.3,209.8c-4.3,0-6.9,4.7-6.9,10.9s2.6,10.9,6.9,10.9c4.3,0,6.9-4.7,6.9-10.9
		S1069.6,209.8,1065.3,209.8z"/>
	<path class="st2" d="M1102.3,233.2l-12.1-21.7v21.7h-2.3v-25.1h3l11.7,20.8v-20.8h2.3v25.1H1102.3z"/>
	<path class="st2" d="M1119.9,233.2v-25.1h15.8v2h-13.4v8.9h11.5v2h-11.5v10.3h13.9v2H1119.9z"/>
	<path class="st2" d="M1176.5,231.5c-1.5,1.3-3.6,2.1-6.2,2.1c-2.4,0-4.6-0.6-5.9-1.7c-1.3-1.1-2-2.7-2.1-4.4h2.5
		c0.2,2.3,2.1,4.2,5.5,4.2c3.4,0,5.8-2,5.8-4.7c0-0.6-0.1-1.2-0.4-1.8c-1-2.2-3.6-3.2-6.6-4.4c-2.4-0.9-4.3-1.8-5.5-3.5
		c-0.6-0.9-0.8-2-0.8-3.2c0-1.6,0.7-3.2,2-4.4c1.4-1.3,3.4-2,5.8-2c2.5,0,4.5,0.8,5.8,1.9c1.1,1,1.7,2.4,1.7,3.8h-2.4
		c-0.3-2-2.1-3.8-5.1-3.8c-2.8,0-5.3,1.5-5.3,4.3c0,0.9,0.1,1.7,0.6,2.4c0.9,1.2,2.6,1.8,5.5,3.1c2.5,1.1,5.4,2.3,6.6,4.6
		c0.5,0.9,0.7,1.8,0.7,2.8C1178.7,228.6,1177.9,230.3,1176.5,231.5z"/>
	<path class="st2" d="M1200.2,233.6c-5.3,0-9.4-4.9-9.4-12.9c0-8.1,4.1-12.9,9.4-12.9s9.4,4.9,9.4,12.9
		C1209.6,228.8,1205.5,233.6,1200.2,233.6z M1200.2,209.8c-4.3,0-6.9,4.7-6.9,10.9s2.6,10.9,6.9,10.9c4.3,0,6.9-4.7,6.9-10.9
		S1204.5,209.8,1200.2,209.8z"/>
	<path class="st2" d="M1229.9,233.7c-5.5,0-8.9-2.8-8.9-7.6v-18h2.4v17.9c0,3.5,2.7,5.8,6.5,5.8c3.9,0,6.6-2.3,6.6-5.8v-17.9h2.3v18
		C1238.8,230.6,1235.5,233.7,1229.9,233.7z"/>
	<path class="st2" d="M1266.4,233.2l-6.8-11.1h-4.9v11.1h-2.4v-25.1h8.1c4.1,0,8.1,2.1,8.1,7c0,3.8-2.2,6.2-6.2,6.9l7.2,11.2H1266.4
		z M1260,210.1h-5.4v10.1h5.4c3.6,0,5.8-1.9,5.8-5C1265.8,212,1263.6,210.1,1260,210.1z"/>
	<path class="st2" d="M1288.6,233.6c-5.7,0-9-4.3-9-12.9c0-8.6,3.4-12.9,9-12.9c4.5,0,6.6,2.3,6.8,5.1h-2.5c-0.2-1.5-1.4-3-4.3-3
		c-4.3,0-6.5,4.1-6.5,10.9c0,6.8,2.2,10.9,6.5,10.9c2.9,0,4.3-1.6,4.6-3.3h2.6C1295.5,231.3,1293.2,233.6,1288.6,233.6z"/>
	<path class="st2" d="M1307.8,233.2v-25.1h15.8v2h-13.4v8.9h11.5v2h-11.5v10.3h13.9v2H1307.8z"/>
	<path class="st2" d="M1361.8,233.6c-5.3,0-9.4-4.9-9.4-12.9c0-8.1,4.1-12.9,9.4-12.9s9.4,4.9,9.4,12.9
		C1371.2,228.8,1367.1,233.6,1361.8,233.6z M1361.8,209.8c-4.3,0-6.9,4.7-6.9,10.9s2.6,10.9,6.9,10.9s6.9-4.7,6.9-10.9
		S1366.1,209.8,1361.8,209.8z"/>
	<path class="st2" d="M1386.3,210.1v9.3h9v2h-9v11.9h-2.4v-25.1h13.5v2H1386.3z"/>
	<path class="st2" d="M1436.9,233.2l-6.8-11.1h-4.9v11.1h-2.4v-25.1h8.1c4.1,0,8.1,2.1,8.1,7c0,3.8-2.2,6.2-6.2,6.9l7.2,11.2H1436.9
		z M1430.5,210.1h-5.4v10.1h5.4c3.6,0,5.8-1.9,5.8-5C1436.3,212,1434.1,210.1,1430.5,210.1z"/>
	<path class="st2" d="M1451.1,233.2v-25.1h15.8v2h-13.4v8.9h11.5v2h-11.5v10.3h13.9v2H1451.1z"/>
	<path class="st2" d="M1493.5,231.5c-1.5,1.3-3.6,2.1-6.2,2.1c-2.4,0-4.6-0.6-5.9-1.7c-1.3-1.1-2-2.7-2.1-4.4h2.5
		c0.2,2.3,2.1,4.2,5.5,4.2c3.3,0,5.8-2,5.8-4.7c0-0.6-0.1-1.2-0.4-1.8c-1-2.2-3.6-3.2-6.6-4.4c-2.4-0.9-4.3-1.8-5.5-3.5
		c-0.6-0.9-0.8-2-0.8-3.2c0-1.6,0.7-3.2,2-4.4c1.4-1.3,3.4-2,5.8-2c2.5,0,4.5,0.8,5.8,1.9c1.1,1,1.7,2.4,1.7,3.8h-2.4
		c-0.3-2-2.1-3.8-5.1-3.8c-2.8,0-5.3,1.5-5.3,4.3c0,0.9,0.1,1.7,0.6,2.4c0.9,1.2,2.6,1.8,5.5,3.1c2.5,1.1,5.4,2.3,6.6,4.6
		c0.5,0.9,0.7,1.8,0.7,2.8C1495.7,228.6,1494.9,230.3,1493.5,231.5z"/>
	<path class="st2" d="M1517.7,222.3h-7.2v10.9h-2.4v-25.1h9.6c5.3,0,8.4,2.9,8.4,7.1C1526.1,219.3,1522.8,222.3,1517.7,222.3z
		 M1517.6,210.1h-7.1v10.2h7.1c3.8,0,6-1.9,6-5.1C1523.6,211.9,1521.3,210.1,1517.6,210.1z"/>
	<path class="st2" d="M1543.1,233.6c-5.3,0-9.4-4.9-9.4-12.9c0-8.1,4.1-12.9,9.4-12.9c5.3,0,9.4,4.9,9.4,12.9
		C1552.5,228.8,1548.4,233.6,1543.1,233.6z M1543.1,209.8c-4.3,0-6.9,4.7-6.9,10.9s2.6,10.9,6.9,10.9c4.3,0,6.9-4.7,6.9-10.9
		S1547.5,209.8,1543.1,209.8z"/>
	<path class="st2" d="M1579.1,233.2l-12.1-21.7v21.7h-2.3v-25.1h3l11.7,20.8v-20.8h2.3v25.1H1579.1z"/>
	<path class="st2" d="M1608.4,231.5c-1.5,1.3-3.6,2.1-6.2,2.1c-2.4,0-4.6-0.6-5.9-1.7c-1.3-1.1-2-2.7-2.1-4.4h2.5
		c0.2,2.3,2.1,4.2,5.5,4.2c3.4,0,5.8-2,5.8-4.7c0-0.6-0.1-1.2-0.4-1.8c-1-2.2-3.6-3.2-6.6-4.4c-2.4-0.9-4.3-1.8-5.5-3.5
		c-0.6-0.9-0.8-2-0.8-3.2c0-1.6,0.7-3.2,2-4.4c1.4-1.3,3.4-2,5.8-2c2.5,0,4.5,0.8,5.8,1.9c1.1,1,1.7,2.4,1.7,3.8h-2.4
		c-0.3-2-2.1-3.8-5.1-3.8c-2.8,0-5.3,1.5-5.3,4.3c0,0.9,0.1,1.7,0.6,2.4c0.9,1.2,2.6,1.8,5.5,3.1c2.5,1.1,5.4,2.3,6.6,4.6
		c0.5,0.9,0.7,1.8,0.7,2.8C1610.6,228.6,1609.8,230.3,1608.4,231.5z"/>
	<path class="st2" d="M1622.6,233.2v-25.1h2.4v25.1H1622.6z"/>
	<path class="st2" d="M1668.5,233.2v-25.1h2.4v25.1H1668.5z"/>
	<path class="st2" d="M1708.7,233.2v-25.1h2.4v25.1H1708.7z"/>
	<path class="st2" d="M1648,233.2h-9.8v-25.1h9.5c4.7,0,8.2,1.7,8.2,6.4c0,2.6-1.6,4.4-4.4,5.4c3.1,0.7,5.3,2.9,5.3,6.1
		C1656.7,230.9,1652.9,233.2,1648,233.2z M1647.6,210.1h-7.1v8.9h7.1c3.3,0,5.7-1.5,5.7-4.4C1653.3,211.6,1650.9,210.1,1647.6,210.1
		z M1647.9,221h-7.4v10.3h7.4c3.8,0,6.3-1.9,6.3-5.2C1654.2,222.8,1651.7,221,1647.9,221z"/>
	<path class="st2" d="M1683.4,233.2v-25.1h2.4v23.1h15.2v2H1683.4z"/>
	<path class="st2" d="M1730.4,210.1v23.1h-2.4v-23.1h-7.8v-2h18v2H1730.4z"/>
	<path class="st2" d="M1756.1,221.4v11.9h-2.4v-11.9l-7.9-13.2h2.7l6.5,11.3l6.5-11.3h2.6L1756.1,221.4z"/>
</g>
<path class="st2" d="M1028,262.3h-6.4V35.5h6.4V262.3z"/>
<g>
	<polygon class="st2" points="871.1,45.1 932.2,107.1 837.7,200.2 848.5,211.2 943.1,118.2 994.4,170.3 1005.4,159.4 882.2,34.2 	
		"/>
	<polygon class="st2" points="917.2,105.5 907,95.1 896.6,84.4 887,74.8 885.7,73.4 809,148.9 798.5,138.3 875.2,62.8 864.4,51.7 
		776.6,138.1 777.7,139.2 787.4,149.1 797.9,159.8 807.9,169.9 808.8,170.8 885.5,95.3 896,106 819.3,181.5 830.1,192.5 
		917.9,106.1 	"/>
	<polygon class="st2" points="858.8,221.6 866.6,229.6 888.9,252.3 894.4,257.8 899.8,263.3 987.6,177 976.7,165.9 900,241.4 
		877.6,218.7 954.4,143.2 943.5,132.2 855.7,218.5 	"/>
</g>
<g>
	<path class="st2" d="M1071,95.1c-5-1.3-14.6-3.6-14.6-14.6c0-8.5,6.5-15,18-15c12.4,0,20.2,7.5,20.2,17.3c0,0.7-0.1,1.5-0.1,2.2
		l-7.8-0.4c0-1.9,0-3.9-0.6-5.7c-1.8-5.3-7-7.3-11.7-7.3c-6.5,0-10.7,3.6-10.7,8.2c0,5.6,5.9,6.9,12,8.3l5.2,1.2
		c5.5,1.4,15.5,3.9,15.5,14.9c0,10.7-9.2,17-20.7,17c-8.6,0-21.7-3.8-21.7-18.1c0-0.7,0-1.3,0.1-2.5l7.5,0.5
		c0.1,2.9,0.1,7.4,4.6,10.6c2.3,1.7,5.7,2.8,9.8,2.8c5,0,12.5-1.9,12.5-9.1c0-6.5-6.8-8-12.1-9.2L1071,95.1z"/>
	<path class="st2" d="M1129,119.6h-8.2l0.1-45.7h-17V67c7,0,14,0.1,21,0.1c6.9,0,13.9-0.1,20.8-0.1v6.9h-17L1129,119.6z"/>
	<path class="st2" d="M1201.8,99.8c-0.7,3.1-1.7,7.1-3.9,10.8c-6,9.8-15.9,10.6-20.8,10.6c-17,0-26.7-12-26.7-27.3
		c0-14.7,9.1-28.4,26.4-28.4c3.1,0,7.1,0.4,11.1,2.2c10.3,4.6,12.8,14.3,13.8,17.9l-7.5,1c-0.6-2.2-1.5-5.2-3.5-8
		c-2.4-3.2-6.8-6.6-13.5-6.6c-9.7,0-18.2,7.3-18.2,21.4c0,13.8,8.6,21,18.8,21c12.6,0,15.3-10.6,16.7-16.4L1201.8,99.8z"/>
	<path class="st2" d="M1283.5,99.8c-0.7,3.1-1.7,7.1-3.9,10.8c-6,9.8-15.9,10.6-20.8,10.6c-17,0-26.7-12-26.7-27.3
		c0-14.7,9.1-28.4,26.4-28.4c3.1,0,7.1,0.4,11.1,2.2c10.3,4.6,12.8,14.3,13.8,17.9l-7.5,1c-0.6-2.2-1.5-5.2-3.5-8
		c-2.4-3.2-6.8-6.6-13.5-6.6c-9.7,0-18.2,7.3-18.2,21.4c0,13.8,8.6,21,18.8,21c12.6,0,15.3-10.6,16.7-16.4L1283.5,99.8z"/>
	<path class="st2" d="M1335.4,112.5c-6.8,8.4-16.1,8.7-19.8,8.7c-3.4,0-7.4-0.5-11.5-2.2c-13.3-5.4-14.7-19.8-14.8-25.4
		c0-13.9,7.7-28.1,26.1-28.1c17.5,0,26,13.2,26,27.9C1341.5,100.7,1339.4,107.6,1335.4,112.5z M1328.5,78.7
		c-3.6-4.6-8.6-5.9-13.2-5.9c-2.5,0-5,0.4-7.2,1.3c-2.3,1-4.3,2.6-5.9,4.5c-3.3,4-4.2,9.3-4.2,14.4c0,4.8,0.8,9.7,3.5,13.6
		c4.5,6.8,11.2,7.1,14.4,7.1c11.8,0,17-8.4,17-20.5C1332.8,90.5,1332.6,83.8,1328.5,78.7z"/>
	<path class="st2" d="M1393.3,119.6h-9.5l-25.5-40.9v40.9h-7.4l0.1-52.5h8.5l26.5,42l-0.3-42h7.4L1393.3,119.6z"/>
	<path class="st2" d="M1423.4,119.6h-8.2l0.1-45.7h-17V67c7,0,14,0.1,21,0.1c6.9,0,13.9-0.1,20.8-0.1v6.9h-17L1423.4,119.6z"/>
	<path class="st2" d="M1489.1,119.6h-9.3l-13.5-22.3l-12.9-0.4v22.7h-7.9V67.1h25.2c3.2,0.1,6.9,0.3,10.2,2c3.7,2,7.1,6.2,7.1,13
		c0,7-3.7,10.7-6.1,12.4c-2.6,1.8-5.2,2.2-7.2,2.5L1489.1,119.6z M1453.4,90.5l11.6,0.1c5-0.1,6.6-0.1,8.6-0.7
		c4.2-1.3,6.3-4.4,6.3-8c0-6.5-5.7-7.7-7.4-8c-1.6-0.3-2.2-0.3-8.4-0.4h-10.7V90.5z"/>
	<path class="st2" d="M1537.9,119.6h-8.6l-5.7-16.3h-18.1l-5.7,16.3h-8.6l19.3-52.5h7.9L1537.9,119.6z M1521.4,96.6l-6.8-19.7
		l-6.6,19.7H1521.4z"/>
	<path class="st2" d="M1592.1,99.8c-0.7,3.1-1.7,7.1-3.9,10.8c-6,9.8-15.9,10.6-20.8,10.6c-17,0-26.7-12-26.7-27.3
		c0-14.7,9.1-28.4,26.4-28.4c3.1,0,7.1,0.4,11.1,2.2c10.3,4.6,12.8,14.3,13.8,17.9l-7.5,1c-0.6-2.2-1.5-5.2-3.5-8
		c-2.4-3.2-6.8-6.6-13.5-6.6c-9.7,0-18.2,7.3-18.2,21.4c0,13.8,8.6,21,18.8,21c12.6,0,15.3-10.6,16.7-16.4L1592.1,99.8z"/>
	<path class="st2" d="M1617.3,119.6h-8.2l0.1-45.7h-17V67c7,0,14,0.1,21,0.1c6.9,0,13.9-0.1,20.8-0.1v6.9h-17L1617.3,119.6z"/>
	<path class="st2" d="M1647.5,119.6h-8.2V67.1h8.2V119.6z"/>
	<path class="st2" d="M1703.4,119.6h-9.5l-25.5-40.9v40.9h-7.4l0.2-52.5h8.5l26.5,42l-0.3-42h7.4L1703.4,119.6z"/>
	<path class="st2" d="M1763.1,93.5v26.1h-7.2v-5.5c-2.2,2.2-7,7.1-17.8,7.1c-17.6,0-25.4-13.6-25.4-26.9c0-15.6,10.2-28.7,27-28.7
		c7.1,0,14.1,2.7,18.8,8.1c3.8,4.5,4.6,8.5,5.1,11.2h-8.4c-0.4-1.6-1.2-4.1-3.1-6.5c-2.5-3.1-6.7-5.7-12.7-5.7
		c-10.2,0-18.2,7.8-18.2,21.4c0,13.2,7.7,20.5,17.3,20.5c5.5,0,10.6-2.4,13.7-6.1c2.8-3.2,3.2-6.2,3.6-8.3h-19.6v-6.6H1763.1z"/>
</g>
<g>
	<path class="st2" d="M1093.2,161.3v21h-5.6v-4.4c-1.7,1.7-5.4,5.7-13.8,5.7c-13.7,0-19.7-10.9-19.7-21.6c0-12.5,7.9-23,21-23
		c5.6,0,10.9,2.1,14.6,6.5c3,3.6,3.6,6.8,4,9h-6.5c-0.3-1.3-0.9-3.3-2.4-5.3c-2-2.5-5.2-4.6-9.8-4.6c-7.9,0-14.1,6.3-14.1,17.2
		c0,10.6,6,16.5,13.5,16.5c4.3,0,8.2-1.9,10.7-4.9c2.1-2.6,2.5-5,2.8-6.6h-15.3v-5.3H1093.2z"/>
	<path class="st2" d="M1142.7,182.3h-7.2l-10.5-17.9l-10-0.3v18.2h-6.1v-42.2h19.6c2.5,0.1,5.4,0.2,7.9,1.6c2.9,1.6,5.6,5,5.6,10.4
		c0,5.6-2.9,8.6-4.7,9.9c-2,1.4-4.1,1.7-5.6,2L1142.7,182.3z M1114.9,158.8l9,0.1c3.9-0.1,5.2-0.1,6.7-0.6c3.2-1,4.9-3.5,4.9-6.4
		c0-5.3-4.5-6.2-5.7-6.4c-1.3-0.2-1.7-0.2-6.5-0.4h-8.3V158.8z"/>
	<path class="st2" d="M1189.2,176.5c-5.3,6.7-12.6,7-15.4,7c-2.7,0-5.8-0.4-8.9-1.7c-10.4-4.4-11.5-15.9-11.5-20.4
		c0-11.2,6-22.6,20.3-22.6c13.6,0,20.2,10.6,20.2,22.4C1193.9,167,1192.3,172.6,1189.2,176.5z M1183.8,149.4
		c-2.8-3.7-6.7-4.7-10.2-4.7c-2,0-3.9,0.3-5.6,1.1c-1.8,0.8-3.4,2.1-4.6,3.6c-2.5,3.2-3.3,7.5-3.3,11.6c0,3.9,0.6,7.8,2.7,10.9
		c3.5,5.4,8.7,5.7,11.2,5.7c9.1,0,13.2-6.7,13.2-16.4C1187.2,158.8,1187,153.5,1183.8,149.4z"/>
	<path class="st2" d="M1240.2,140.1v21.1c0,5-0.1,9.2-1,12.5c-2.7,9.3-11.4,9.7-15.6,9.7c-6.9,0-12.6-2.5-14.8-8.8
		c-1-3-1-6.4-1.2-14.9v-19.7h5.8v19.8v2.6c0.1,7,0.5,8.5,0.9,9.7c2,5.8,7.2,5.8,9.8,5.8c2,0,4.1-0.2,5.8-1.3c3.8-2.3,3.9-6.8,4.1-9
		c0.1-2.2,0.1-3.6,0.1-7.2v-20.4H1240.2z"/>
	<path class="st2" d="M1262.3,182.3h-6.3V140h20.8c2.1,0.1,5,0.1,7.6,1.6c3.8,2.1,5.6,5.9,5.6,10.4c0,1.5-0.2,3.5-1.1,5.6
		c-2.7,6-8.1,6.7-13.4,6.7c-1,0-3.1,0-4.6-0.1h-8.6V182.3z M1262.3,159h11.4c3,0,4.4-0.1,5.8-0.6c2.7-1,4.1-3.3,4.1-6.3
		c0-3.9-2.3-5.6-3.8-6.1c-1.4-0.5-2.9-0.7-6.1-0.8h-11.3V159z"/>
</g>
<g>
	<path class="st2" d="M1065.3,233.6c-5.3,0-9.4-4.9-9.4-12.9c0-8.1,4.1-12.9,9.4-12.9c5.3,0,9.4,4.9,9.4,12.9
		C1074.7,228.8,1070.6,233.6,1065.3,233.6z M1065.3,209.8c-4.3,0-6.9,4.7-6.9,10.9s2.6,10.9,6.9,10.9c4.3,0,6.9-4.7,6.9-10.9
		S1069.6,209.8,1065.3,209.8z"/>
	<path class="st2" d="M1102.3,233.2l-12.1-21.7v21.7h-2.3v-25.1h3l11.7,20.8v-20.8h2.3v25.1H1102.3z"/>
	<path class="st2" d="M1119.9,233.2v-25.1h15.8v2h-13.4v8.9h11.5v2h-11.5v10.3h13.9v2H1119.9z"/>
	<path class="st2" d="M1176.5,231.5c-1.5,1.3-3.6,2.1-6.2,2.1c-2.4,0-4.6-0.6-5.9-1.7c-1.3-1.1-2-2.7-2.1-4.4h2.5
		c0.2,2.3,2.1,4.2,5.5,4.2c3.4,0,5.8-2,5.8-4.7c0-0.6-0.1-1.2-0.4-1.8c-1-2.2-3.6-3.2-6.6-4.4c-2.4-0.9-4.3-1.8-5.5-3.5
		c-0.6-0.9-0.8-2-0.8-3.2c0-1.6,0.7-3.2,2-4.4c1.4-1.3,3.4-2,5.8-2c2.5,0,4.5,0.8,5.8,1.9c1.1,1,1.7,2.4,1.7,3.8h-2.4
		c-0.3-2-2.1-3.8-5.1-3.8c-2.8,0-5.3,1.5-5.3,4.3c0,0.9,0.1,1.7,0.6,2.4c0.9,1.2,2.6,1.8,5.5,3.1c2.5,1.1,5.4,2.3,6.6,4.6
		c0.5,0.9,0.7,1.8,0.7,2.8C1178.7,228.6,1177.9,230.3,1176.5,231.5z"/>
	<path class="st2" d="M1200.2,233.6c-5.3,0-9.4-4.9-9.4-12.9c0-8.1,4.1-12.9,9.4-12.9s9.4,4.9,9.4,12.9
		C1209.6,228.8,1205.5,233.6,1200.2,233.6z M1200.2,209.8c-4.3,0-6.9,4.7-6.9,10.9s2.6,10.9,6.9,10.9c4.3,0,6.9-4.7,6.9-10.9
		S1204.5,209.8,1200.2,209.8z"/>
	<path class="st2" d="M1229.9,233.7c-5.5,0-8.9-2.8-8.9-7.6v-18h2.4v17.9c0,3.5,2.7,5.8,6.5,5.8c3.9,0,6.6-2.3,6.6-5.8v-17.9h2.3v18
		C1238.8,230.6,1235.5,233.7,1229.9,233.7z"/>
	<path class="st2" d="M1266.4,233.2l-6.8-11.1h-4.9v11.1h-2.4v-25.1h8.1c4.1,0,8.1,2.1,8.1,7c0,3.8-2.2,6.2-6.2,6.9l7.2,11.2H1266.4
		z M1260,210.1h-5.4v10.1h5.4c3.6,0,5.8-1.9,5.8-5C1265.8,212,1263.6,210.1,1260,210.1z"/>
	<path class="st2" d="M1288.6,233.6c-5.7,0-9-4.3-9-12.9c0-8.6,3.4-12.9,9-12.9c4.5,0,6.6,2.3,6.8,5.1h-2.5c-0.2-1.5-1.4-3-4.3-3
		c-4.3,0-6.5,4.1-6.5,10.9c0,6.8,2.2,10.9,6.5,10.9c2.9,0,4.3-1.6,4.6-3.3h2.6C1295.5,231.3,1293.2,233.6,1288.6,233.6z"/>
	<path class="st2" d="M1307.8,233.2v-25.1h15.8v2h-13.4v8.9h11.5v2h-11.5v10.3h13.9v2H1307.8z"/>
	<path class="st2" d="M1361.8,233.6c-5.3,0-9.4-4.9-9.4-12.9c0-8.1,4.1-12.9,9.4-12.9s9.4,4.9,9.4,12.9
		C1371.2,228.8,1367.1,233.6,1361.8,233.6z M1361.8,209.8c-4.3,0-6.9,4.7-6.9,10.9s2.6,10.9,6.9,10.9s6.9-4.7,6.9-10.9
		S1366.1,209.8,1361.8,209.8z"/>
	<path class="st2" d="M1386.3,210.1v9.3h9v2h-9v11.9h-2.4v-25.1h13.5v2H1386.3z"/>
	<path class="st2" d="M1436.9,233.2l-6.8-11.1h-4.9v11.1h-2.4v-25.1h8.1c4.1,0,8.1,2.1,8.1,7c0,3.8-2.2,6.2-6.2,6.9l7.2,11.2H1436.9
		z M1430.5,210.1h-5.4v10.1h5.4c3.6,0,5.8-1.9,5.8-5C1436.3,212,1434.1,210.1,1430.5,210.1z"/>
	<path class="st2" d="M1451.1,233.2v-25.1h15.8v2h-13.4v8.9h11.5v2h-11.5v10.3h13.9v2H1451.1z"/>
	<path class="st2" d="M1493.5,231.5c-1.5,1.3-3.6,2.1-6.2,2.1c-2.4,0-4.6-0.6-5.9-1.7c-1.3-1.1-2-2.7-2.1-4.4h2.5
		c0.2,2.3,2.1,4.2,5.5,4.2c3.3,0,5.8-2,5.8-4.7c0-0.6-0.1-1.2-0.4-1.8c-1-2.2-3.6-3.2-6.6-4.4c-2.4-0.9-4.3-1.8-5.5-3.5
		c-0.6-0.9-0.8-2-0.8-3.2c0-1.6,0.7-3.2,2-4.4c1.4-1.3,3.4-2,5.8-2c2.5,0,4.5,0.8,5.8,1.9c1.1,1,1.7,2.4,1.7,3.8h-2.4
		c-0.3-2-2.1-3.8-5.1-3.8c-2.8,0-5.3,1.5-5.3,4.3c0,0.9,0.1,1.7,0.6,2.4c0.9,1.2,2.6,1.8,5.5,3.1c2.5,1.1,5.4,2.3,6.6,4.6
		c0.5,0.9,0.7,1.8,0.7,2.8C1495.7,228.6,1494.9,230.3,1493.5,231.5z"/>
	<path class="st2" d="M1517.7,222.3h-7.2v10.9h-2.4v-25.1h9.6c5.3,0,8.4,2.9,8.4,7.1C1526.1,219.3,1522.8,222.3,1517.7,222.3z
		 M1517.6,210.1h-7.1v10.2h7.1c3.8,0,6-1.9,6-5.1C1523.6,211.9,1521.3,210.1,1517.6,210.1z"/>
	<path class="st2" d="M1543.1,233.6c-5.3,0-9.4-4.9-9.4-12.9c0-8.1,4.1-12.9,9.4-12.9c5.3,0,9.4,4.9,9.4,12.9
		C1552.5,228.8,1548.4,233.6,1543.1,233.6z M1543.1,209.8c-4.3,0-6.9,4.7-6.9,10.9s2.6,10.9,6.9,10.9c4.3,0,6.9-4.7,6.9-10.9
		S1547.5,209.8,1543.1,209.8z"/>
	<path class="st2" d="M1579.1,233.2l-12.1-21.7v21.7h-2.3v-25.1h3l11.7,20.8v-20.8h2.3v25.1H1579.1z"/>
	<path class="st2" d="M1608.4,231.5c-1.5,1.3-3.6,2.1-6.2,2.1c-2.4,0-4.6-0.6-5.9-1.7c-1.3-1.1-2-2.7-2.1-4.4h2.5
		c0.2,2.3,2.1,4.2,5.5,4.2c3.4,0,5.8-2,5.8-4.7c0-0.6-0.1-1.2-0.4-1.8c-1-2.2-3.6-3.2-6.6-4.4c-2.4-0.9-4.3-1.8-5.5-3.5
		c-0.6-0.9-0.8-2-0.8-3.2c0-1.6,0.7-3.2,2-4.4c1.4-1.3,3.4-2,5.8-2c2.5,0,4.5,0.8,5.8,1.9c1.1,1,1.7,2.4,1.7,3.8h-2.4
		c-0.3-2-2.1-3.8-5.1-3.8c-2.8,0-5.3,1.5-5.3,4.3c0,0.9,0.1,1.7,0.6,2.4c0.9,1.2,2.6,1.8,5.5,3.1c2.5,1.1,5.4,2.3,6.6,4.6
		c0.5,0.9,0.7,1.8,0.7,2.8C1610.6,228.6,1609.8,230.3,1608.4,231.5z"/>
	<path class="st2" d="M1622.6,233.2v-25.1h2.4v25.1H1622.6z"/>
	<path class="st2" d="M1668.5,233.2v-25.1h2.4v25.1H1668.5z"/>
	<path class="st2" d="M1708.7,233.2v-25.1h2.4v25.1H1708.7z"/>
	<path class="st2" d="M1648,233.2h-9.8v-25.1h9.5c4.7,0,8.2,1.7,8.2,6.4c0,2.6-1.6,4.4-4.4,5.4c3.1,0.7,5.3,2.9,5.3,6.1
		C1656.7,230.9,1652.9,233.2,1648,233.2z M1647.6,210.1h-7.1v8.9h7.1c3.3,0,5.7-1.5,5.7-4.4C1653.3,211.6,1650.9,210.1,1647.6,210.1
		z M1647.9,221h-7.4v10.3h7.4c3.8,0,6.3-1.9,6.3-5.2C1654.2,222.8,1651.7,221,1647.9,221z"/>
	<path class="st2" d="M1683.4,233.2v-25.1h2.4v23.1h15.2v2H1683.4z"/>
	<path class="st2" d="M1730.4,210.1v23.1h-2.4v-23.1h-7.8v-2h18v2H1730.4z"/>
	<path class="st2" d="M1756.1,221.4v11.9h-2.4v-11.9l-7.9-13.2h2.7l6.5,11.3l6.5-11.3h2.6L1756.1,221.4z"/>
</g>
<path class="st2" d="M1028,262.3h-6.4V35.5h6.4V262.3z"/>
<g>
	<polygon class="st2" points="871.1,45.1 932.2,107.1 837.7,200.2 848.5,211.2 943.1,118.2 994.4,170.3 1005.4,159.4 882.2,34.2 	
		"/>
	<polygon class="st2" points="917.2,105.5 907,95.1 896.6,84.4 887,74.8 885.7,73.4 809,148.9 798.5,138.3 875.2,62.8 864.4,51.7 
		776.6,138.1 777.7,139.2 787.4,149.1 797.9,159.8 807.9,169.9 808.8,170.8 885.5,95.3 896,106 819.3,181.5 830.1,192.5 
		917.9,106.1 	"/>
	<polygon class="st2" points="858.8,221.6 866.6,229.6 888.9,252.3 894.4,257.8 899.8,263.3 987.6,177 976.7,165.9 900,241.4 
		877.6,218.7 954.4,143.2 943.5,132.2 855.7,218.5 	"/>
</g>
</svg>
