<?xml version="1.0" encoding="utf-8"?>
<!-- Generator: Adobe Illustrator 19.0.0, SVG Export Plug-In . SVG Version: 6.00 Build 0)  -->
<svg version="1.1" id="Layer_1" xmlns="http://www.w3.org/2000/svg" xmlns:xlink="http://www.w3.org/1999/xlink" x="0px" y="0px"
	 width="648px" height="583px" viewBox="0 0 648 583" style="enable-background:new 0 0 648 583;" xml:space="preserve">
<style type="text/css">
	.st0{fill:#3280AB;}
	.st1{fill:#245892;}
</style>
<polygon class="st0" points="173.5,85.7 173.5,158.4 404.4,314.3 404.4,241.5 "/>
<polygon class="st1" points="474.6,206.7 474.6,279.4 404.4,314.3 404.4,241.5 "/>
<polygon class="st1" points="441.9,109 441.9,188.5 374.1,142.7 "/>
<polygon class="st1" points="395.1,0 395.1,65.1 319.8,106.1 261.2,66.6 "/>
<g>
	<path class="st1" d="M0.4,388.1h71.5v24.3H26.7v17h42.1v23H26.7v35.7H0.4V388.1z"/>
	<path class="st1" d="M110.6,438.4v-0.3c0-28.7,22.2-52,51.7-52s51.5,23,51.5,51.7v0.3c0,28.7-22.2,52-51.7,52
		S110.6,467.1,110.6,438.4z M186.6,438.4v-0.3c0-14.6-9.9-28-24.5-28c-14.6,0-24.4,13.3-24.4,27.7v0.3c0,14.4,10,28,24.6,28
		C176.9,466.1,186.6,452.8,186.6,438.4z"/>
	<path class="st1" d="M255.5,388.1h44.9c14.5,0,24.6,4,30.9,10.7c5.6,5.9,8.4,13.4,8.4,23.3v0.3c0,15.4-7.7,25.6-19.5,30.9
		l21.7,34.9h-30.3l-18.2-30.3h-11.7v30.3h-26.3V388.1z M299.3,436.1c8.8,0,14.1-4.6,14.1-11.9V424c0-8-5.6-12-14.2-12h-17.4v24.1
		H299.3z"/>
	<path class="st1" d="M403.4,412.4H375v-24.3h83.2v24.3h-28.5v75.7h-26.3V412.4z"/>
	<path class="st1" d="M497.6,388.1h26.3v100h-26.3V388.1z"/>
	<path class="st1" d="M563.7,469.6l16.2-16.3c8.8,8.8,15.8,14.5,26.8,14.5c9.4,0,15-3.5,15-7.8v-0.3c0-4.3-4.2-7.7-17.9-9.1
		c-20.7-2.2-38.1-11.5-38.1-31.9v-0.3c0-18.6,14-32,36.8-32c16.1,0,29.7,4.6,42.1,17.3L627.8,421c-8.3-9.9-18.3-12.3-26-11.6
		c-6.4,0.5-9.5,2.7-9.5,6.4v0.3c0,4.6,3.3,7.5,16.9,9c21.1,2.3,38.8,11.3,38.8,31.9v0.3c0,20.4-18,33-41.1,33
		C590.1,490.3,574.6,484.5,563.7,469.6z"/>
</g>
<g>
	<path class="st1" d="M150.8,553.6v-0.2c0-15.7,11.5-29.6,28.7-29.6c9.6,0,15.6,2.8,21.3,7.6l-4.2,4.9c-4.4-3.8-9.3-6.5-17.4-6.5
		c-12.7,0-21.7,10.7-21.7,23.5v0.2c0,13.6,8.7,23.8,22.6,23.8c6.5,0,12.6-2.5,16.5-5.7v-14.2h-17.4v-5.8h23.6v22.8
		c-5.3,4.7-13.3,8.7-23,8.7C161.9,583,150.8,570,150.8,553.6z"/>
	<path class="st1" d="M229.6,524.8h24.6c7,0,12.7,2.1,16.3,5.7c2.8,2.8,4.4,6.8,4.4,11.3v0.2c0,9.5-6.5,15-15.5,16.7l17.6,23.4H269
		l-16.6-22.2h-16.3v22.2h-6.5V524.8z M253.6,554c8.6,0,14.7-4.4,14.7-11.8v-0.2c0-7-5.4-11.3-14.6-11.3h-17.7V554H253.6z"/>
	<path class="st1" d="M298.4,553.6v-0.2c0-15.8,11.9-29.6,29.3-29.6c17.4,0,29.1,13.6,29.1,29.4v0.2c0,15.8-11.8,29.6-29.3,29.6
		C310.1,583,298.4,569.4,298.4,553.6z M350.1,553.6v-0.2c0-13-9.5-23.6-22.6-23.6c-13.1,0-22.4,10.5-22.4,23.5v0.2
		c0,13,9.5,23.6,22.6,23.6C340.8,577.1,350.1,566.6,350.1,553.6z"/>
	<path class="st1" d="M381.8,558.1v-33.3h6.5v32.9c0,12.3,6.6,19.3,17.5,19.3c10.5,0,17.2-6.4,17.2-18.9v-33.3h6.5v32.8
		c0,16.7-9.6,25.3-23.9,25.3C391.4,583,381.8,574.3,381.8,558.1z"/>
	<path class="st1" d="M457,524.8h21.4c12.9,0,21.4,6.9,21.4,18.1v0.2c0,12.3-10.3,18.7-22.5,18.7h-13.9v20.2H457V524.8z M477.6,556
		c9.5,0,15.7-5.1,15.7-12.6v-0.2c0-8.2-6.1-12.4-15.4-12.4h-14.5V556H477.6z"/>
</g>
</svg>
